<?xml version="1.0" encoding="UTF-8"?>
<svg version="1.1" xmlns="http://www.w3.org/2000/svg" width="137" height="40">
<path d="M0 0 C45.21 0 90.42 0 137 0 C137 13.2 137 26.4 137 40 C91.79 40 46.58 40 0 40 C0 26.8 0 13.6 0 0 Z " fill="#FCFDFE" transform="translate(0,0)"/>
<path d="M0 0 C0.76183594 -0.02578125 1.52367188 -0.0515625 2.30859375 -0.078125 C5.22195477 0.34600381 6.52262382 1.13202045 8.5625 3.25 C8.98828125 5.66015625 8.98828125 5.66015625 8.875 8.3125 C8.85050781 9.19035156 8.82601562 10.06820313 8.80078125 10.97265625 C8.5625 13.25 8.5625 13.25 7.5625 15.25 C8.4596875 15.4046875 8.4596875 15.4046875 9.375 15.5625 C11.95007109 16.37180806 13.04401913 17.01223872 14.5625 19.25 C14.44121602 23.73750726 12.12428082 26.69656208 9.5625 30.25 C8.5625 28.25 8.5625 28.25 8.8125 24.875 C8.95607248 21.09221309 8.95607248 21.09221309 6.0625 18.8125 C5.2375 18.296875 4.4125 17.78125 3.5625 17.25 C3.8925 16.54875 4.2225 15.8475 4.5625 15.125 C5.66954461 11.94224674 5.85998557 9.59671266 5.5625 6.25 C3.19089852 3.87839852 2.55628878 3.93016648 -0.6875 3.875 C-5.36803886 4.01001554 -7.90060189 5.03463808 -11.4375 8.25 C-15.47787236 13.69191073 -17.58074344 18.0743072 -17.5 24.9375 C-17.49097656 25.93136719 -17.48195312 26.92523437 -17.47265625 27.94921875 C-17.46105469 28.70847656 -17.44945312 29.46773437 -17.4375 30.25 C-20.08266087 27.60483913 -19.76623984 26.24943485 -19.8125 22.5625 C-19.61367928 13.29524514 -15.73401048 9.20891061 -9.33984375 2.8515625 C-6.39970046 0.37628786 -3.71561856 0.07518958 0 0 Z " fill="#17A0DB" transform="translate(66.4375,0.75)"/>
<path d="M0 0 C0.66 0.66 1.32 1.32 2 2 C1.12988281 2.12955078 1.12988281 2.12955078 0.2421875 2.26171875 C-5.43293582 3.28249176 -8.98679753 4.61347637 -13 9 C-17.16270267 15.44505678 -17.50554976 21.48696886 -17 29 C-19.64516087 26.35483913 -19.32873984 24.99943485 -19.375 21.3125 C-19.17617928 12.04524514 -15.29651048 7.95891061 -8.90234375 1.6015625 C-5.82136413 -0.99228072 -3.69460397 -1.31098851 0 0 Z " fill="#23A4DC" transform="translate(66,2)"/>
<path d="M0 0 C3.3 0 6.6 0 10 0 C10 0.66 10 1.32 10 2 C9.01 2 8.02 2 7 2 C7.226875 2.928125 7.45375 3.85625 7.6875 4.8125 C8 8 8 8 6.5625 9.875 C6.046875 10.24625 5.53125 10.6175 5 11 C4.01 10.67 3.02 10.34 2 10 C2.66 10 3.32 10 4 10 C4 9.01 4 8.02 4 7 C2.68 7 1.36 7 0 7 C0 4.69 0 2.38 0 0 Z " fill="#84CBE9" transform="translate(83,16)"/>
<path d="M0 0 C6.6 0.6 6.6 0.6 9 3 C9.26991906 5.68839385 9.08737357 8.29141936 9 11 C8.34 10.01 7.68 9.02 7 8 C4.43324403 5.30161552 2.10451137 3.06967424 -1 1 C-0.67 0.67 -0.34 0.34 0 0 Z " fill="#0A9AD9" transform="translate(66,1)"/>
<path d="M0 0 C3.3 0.33 6.6 0.66 10 1 C10.33 1.99 10.66 2.98 11 4 C7.37 4 3.74 4 0 4 C0 2.68 0 1.36 0 0 Z " fill="#AAD8EA" transform="translate(88,35)"/>
<path d="M0 0 C0.66 0.66 1.32 1.32 2 2 C1.505 2.928125 1.01 3.85625 0.5 4.8125 C-1.659445 9.73968438 -1.25765646 14.72281389 -1 20 C-3.6618004 17.3381996 -3.29866602 15.95750737 -3.3125 12.25 C-3.24679051 7.27997339 -2.74674319 4.12011479 0 0 Z " fill="#34ABDE" transform="translate(50,11)"/>
<path d="M0 0 C2.64 0 5.28 0 8 0 C8 1.32 8 2.64 8 4 C2.25 4.125 2.25 4.125 0 3 C0 2.01 0 1.02 0 0 Z " fill="#AEDAEB" transform="translate(64,36)"/>
<path d="M0 0 C2.97 0 5.94 0 9 0 C9 0.99 9 1.98 9 3 C6.03 3 3.06 3 0 3 C0 2.01 0 1.02 0 0 Z " fill="#9DD2E7" transform="translate(52,36)"/>
<path d="M0 0 C2.31 0 4.62 0 7 0 C6.67 0.99 6.34 1.98 6 3 C3.69 3 1.38 3 -1 3 C-0.67 2.01 -0.34 1.02 0 0 Z " fill="#29A7DD" transform="translate(84,28)"/>
<path d="M0 0 C1.32 0.66 2.64 1.32 4 2 C3.42655063 4.86724686 3.1385485 5.8614515 1 8 C0.01 7.67 -0.98 7.34 -2 7 C-1.34 6.67 -0.68 6.34 0 6 C0 4.02 0 2.04 0 0 Z " fill="#1EA2DB" transform="translate(87,19)"/>
<path d="M0 0 C1.98 0 3.96 0 6 0 C6.33 0.99 6.66 1.98 7 3 C4.69 3 2.38 3 0 3 C0 2.01 0 1.02 0 0 Z " fill="#A3D4E8" transform="translate(73,36)"/>
</svg>
