<?xml version="1.0" encoding="UTF-8"?>
<svg version="1.1" xmlns="http://www.w3.org/2000/svg" width="418" height="173">
<path d="M0 0 C3.3 0 6.6 0 10 0 C11.25261803 2.47787304 12.50212561 4.95723902 13.75 7.4375 C14.09804688 8.12521484 14.44609375 8.81292969 14.8046875 9.52148438 C17.37038209 14.62911713 19.67245404 19.76302159 22 25 C22.33 16.75 22.66 8.5 23 0 C25.64 0 28.28 0 31 0 C31 14.19 31 28.38 31 43 C27.7 43 24.4 43 21 43 C15.555 31.12 15.555 31.12 10 19 C9.67 26.92 9.34 34.84 9 43 C6.03 43 3.06 43 0 43 C0 28.81 0 14.62 0 0 Z " fill="#010101" transform="translate(253,57)"/>
<path d="M0 0 C20 0 20 0 27 4 C32.47911381 11.30548508 31.81597656 21.26514457 31 30 C29.59939652 35.36644269 26.71895471 39.05065331 22 42 C14.87827589 43.78043103 7.34090518 43 0 43 C0 28.81 0 14.62 0 0 Z M9 9 C9 17.25 9 25.5 9 34 C15.20858402 34.33918222 15.20858402 34.33918222 20 32 C21.70345745 28.59308509 21.22662366 24.81732483 21.25 21.0625 C21.270625 20.23814453 21.29125 19.41378906 21.3125 18.56445312 C21.31765625 17.77103516 21.3228125 16.97761719 21.328125 16.16015625 C21.3374707 15.43449463 21.34681641 14.70883301 21.35644531 13.96118164 C21.10846852 11.5392045 21.10846852 11.5392045 18 9 C15.03 9 12.06 9 9 9 Z " fill="#020101" transform="translate(184,57)"/>
<path d="M0 0 C2.97 0 5.94 0 9 0 C9.01981934 0.85754883 9.03963867 1.71509766 9.06005859 2.59863281 C9.13829521 5.78947642 9.22499343 8.9799474 9.31738281 12.17041016 C9.35559338 13.54955243 9.39046002 14.92879167 9.421875 16.30810547 C9.46769624 18.29416967 9.52666263 20.27991679 9.5859375 22.265625 C9.6173584 23.45961914 9.6487793 24.65361328 9.68115234 25.88378906 C9.9803287 28.80774539 10.47461838 30.52727611 12 33 C14.64 33 17.28 33 20 33 C20.33 22.11 20.66 11.22 21 0 C23.97 0 26.94 0 30 0 C30.07445407 4.73222455 30.1287447 9.46410411 30.16479492 14.19677734 C30.17983176 15.80491072 30.20026672 17.41300344 30.22631836 19.02099609 C30.26292822 21.33962064 30.27977722 23.65770049 30.29296875 25.9765625 C30.30845261 26.68930328 30.32393646 27.40204407 30.33988953 28.13638306 C30.34145675 32.84134075 29.47823771 36.00550156 27 40 C23.11005035 43.21343667 19.89092938 43.38137121 14.9375 43.3125 C13.72964844 43.30863281 12.52179688 43.30476563 11.27734375 43.30078125 C8.21469176 43.01970353 6.5171483 42.69966322 4 41 C0.13153208 35.55548959 -0.12380034 31.19768541 -0.09765625 24.609375 C-0.0962413 23.90476135 -0.09482635 23.20014771 -0.09336853 22.47418213 C-0.08778933 20.23274416 -0.07524073 17.99140757 -0.0625 15.75 C-0.05748231 14.22656395 -0.05291987 12.70312632 -0.04882812 11.1796875 C-0.03782674 7.45309228 -0.02057646 3.72655604 0 0 Z " fill="#010101" transform="translate(100,57)"/>
<path d="M0 0 C8.58 0 17.16 0 26 0 C26 2.97 26 5.94 26 9 C20.39 9 14.78 9 9 9 C9 11.64 9 14.28 9 17 C13.95 17 18.9 17 24 17 C24.09765625 23.15234375 24.09765625 23.15234375 24 25 C23 26 23 26 19.83984375 26.09765625 C18.55207031 26.08605469 17.26429688 26.07445313 15.9375 26.0625 C14.64714844 26.05347656 13.35679687 26.04445313 12.02734375 26.03515625 C11.02832031 26.02355469 10.02929688 26.01195313 9 26 C9 28.64 9 31.28 9 34 C14.61 34 20.22 34 26 34 C26 36.97 26 39.94 26 43 C17.42 43 8.84 43 0 43 C0 28.81 0 14.62 0 0 Z " fill="#020202" transform="translate(221,57)"/>
<path d="M0 0 C3.63 0 7.26 0 11 0 C13.13898243 4.76802823 14.85857676 9.50469139 16.26171875 14.54296875 C16.45723831 15.23385086 16.65275787 15.92473297 16.85420227 16.6365509 C17.26233911 18.0837787 17.66809018 19.5316813 18.0715332 20.98022461 C18.68933201 23.1940649 19.31781301 25.40468296 19.94726562 27.61523438 C20.34439262 29.02846541 20.74089897 30.44187103 21.13671875 31.85546875 C21.3241716 32.51282516 21.51162445 33.17018158 21.70475769 33.84745789 C22.59625071 37.07751079 23 39.60738149 23 43 C20.03 43 17.06 43 14 43 C12.68373308 39.38026598 12 36.90432869 12 33 C7.71 33 3.42 33 -1 33 C-1.144375 34.27875 -1.28875 35.5575 -1.4375 36.875 C-1.70642746 39.25692894 -1.92226346 40.84452691 -3 43 C-5.64 43 -8.28 43 -11 43 C-12.40615642 38.78153073 -10.95908239 35.57659415 -9.7265625 31.46484375 C-9.48336273 30.63038223 -9.24016296 29.79592072 -8.98959351 28.93617249 C-8.20941583 26.26752049 -7.41712132 23.60262817 -6.625 20.9375 C-6.09821227 19.13758798 -5.5721615 17.33746009 -5.046875 15.53710938 C-4.5449232 13.8253294 -4.0423403 12.11373434 -3.5390625 10.40234375 C-3.30047516 9.59087387 -3.06188782 8.77940399 -2.81607056 7.94334412 C-1.11886992 2.23773984 -1.11886992 2.23773984 0 0 Z M5 10 C4.01 14.62 3.02 19.24 2 24 C4.31 24 6.62 24 9 24 C8.01 19.38 7.02 14.76 6 10 C5.67 10 5.34 10 5 10 Z " fill="#020101" transform="translate(73,57)"/>
<path d="M0 0 C3.96 0 7.92 0 12 0 C13.57327153 5.47906264 15.13965847 10.96002881 16.69970703 16.44287109 C17.23134774 18.30766818 17.76486348 20.17193177 18.30029297 22.03564453 C19.06972305 24.71508843 19.83238255 27.39638056 20.59375 30.078125 C20.95466736 31.32677338 20.95466736 31.32677338 21.32287598 32.60064697 C21.65321838 33.77140778 21.65321838 33.77140778 21.99023438 34.96582031 C22.18564819 35.64976868 22.38106201 36.33371704 22.58239746 37.03839111 C23 39 23 39 23 43 C20.03 43 17.06 43 14 43 C13.34 39.7 12.68 36.4 12 33 C6.06 33.495 6.06 33.495 0 34 C-0.99 36.97 -1.98 39.94 -3 43 C-5.64 43 -8.28 43 -11 43 C-10.4929299 34.95026217 -8.36015465 27.46645818 -6.13427734 19.7590332 C-5.49498893 17.54514643 -4.86578279 15.32858163 -4.23828125 13.11132812 C-3.83650951 11.70035783 -3.43418597 10.28954451 -3.03125 8.87890625 C-2.84268433 8.21750137 -2.65411865 7.5560965 -2.45983887 6.87464905 C-1.76959838 4.48857601 -1.11346007 2.22692013 0 0 Z M5 10 C4.01 14.62 3.02 19.24 2 24 C4.31 24 6.62 24 9 24 C8.01 19.38 7.02 14.76 6 10 C5.67 10 5.34 10 5 10 Z " fill="#010101" transform="translate(331,57)"/>
<path d="M0 0 C2.46585546 2.0307045 3.75722859 3.87048125 5.125 6.75 C5.125 7.74 5.125 8.73 5.125 9.75 C2.3125 11.3125 2.3125 11.3125 -0.875 12.75 C-3.875 11.75 -3.875 11.75 -5.875 8.75 C-9.12973073 7.40321487 -11.51354063 8.01659068 -14.875 8.75 C-14.93289006 12.20826342 -14.96855821 15.66640293 -15 19.125 C-15.01675781 20.10984375 -15.03351563 21.0946875 -15.05078125 22.109375 C-15.06044922 23.52089844 -15.06044922 23.52089844 -15.0703125 24.9609375 C-15.08602295 26.26490479 -15.08602295 26.26490479 -15.10205078 27.59521484 C-15.08095109 29.96345939 -15.08095109 29.96345939 -12.875 31.75 C-9.41730809 32.33342353 -9.41730809 32.33342353 -5.875 31.75 C-3.86635641 29.3773026 -3.86635641 29.3773026 -2.875 26.75 C0.0969385 27.87451727 2.45940687 28.97293791 5.125 30.75 C3.88392597 35.71429611 2.36393588 37.88871828 -1.875 40.75 C-6.06852619 42.84676309 -11.30814057 42.1564744 -15.875 41.75 C-20.04821496 40.036001 -22.08516657 37.91441052 -24.25 34.0625 C-27.38946919 26.15471567 -27.30928645 14.95353672 -24.6875 6.9375 C-22.16355729 2.49884213 -19.67703111 0.6100603 -15.125 -1.5625 C-9.77787331 -2.69362295 -5.01140749 -2.17887282 0 0 Z " fill="#020101" transform="translate(161.875,58.25)"/>
<path d="M0 0 C9.57 0 19.14 0 29 0 C29 2.97 29 5.94 29 9 C25.7 9 22.4 9 19 9 C19 20.22 19 31.44 19 43 C16.03 43 13.06 43 10 43 C10 31.78 10 20.56 10 9 C6.7 9 3.4 9 0 9 C0 6.03 0 3.06 0 0 Z " fill="#020202" transform="translate(289,57)"/>
<path d="M0 0 C3.3 0 6.6 0 10 0 C10 11.22 10 22.44 10 34 C14.62 34 19.24 34 24 34 C24 36.97 24 39.94 24 43 C20.18751574 43.02887236 16.3750593 43.04675492 12.5625 43.0625 C11.47388672 43.07087891 10.38527344 43.07925781 9.26367188 43.08789062 C8.22919922 43.09111328 7.19472656 43.09433594 6.12890625 43.09765625 C5.17056885 43.10289307 4.21223145 43.10812988 3.22485352 43.11352539 C1 43 1 43 0 42 C-0.08874135 38.89748799 -0.11518455 35.8173188 -0.09765625 32.71484375 C-0.0962413 31.78402481 -0.09482635 30.85320587 -0.09336853 29.8941803 C-0.08775172 26.90858809 -0.0751964 23.92306971 -0.0625 20.9375 C-0.05748716 18.91862087 -0.05292388 16.89974057 -0.04882812 14.88085938 C-0.03777683 9.92054428 -0.02050095 4.96028468 0 0 Z " fill="#000000" transform="translate(358,57)"/>
<path d="M0 0 C1.0828125 -0.2784375 1.0828125 -0.2784375 2.1875 -0.5625 C2.785625 -0.706875 3.38375 -0.85125 4 -1 C4.99 -0.34 5.98 0.32 7 1 C7.29296875 3.6015625 7.29296875 3.6015625 7.1875 6.625 C7.16042969 7.62789062 7.13335937 8.63078125 7.10546875 9.6640625 C7.07066406 10.43492187 7.03585937 11.20578125 7 12 C6.34 12 5.68 12 5 12 C4.67 9.36 4.34 6.72 4 4 C3.01 4 2.02 4 1 4 C0.67 6.64 0.34 9.28 0 12 C-0.99 11.67 -1.98 11.34 -3 11 C-3 8.36 -3 5.72 -3 3 C-3.99 3.33 -4.98 3.66 -6 4 C-6.33 6.64 -6.66 9.28 -7 12 C-7.99 12 -8.98 12 -10 12 C-10 8.04 -10 4.08 -10 0 C-5.9267768 -1.0183058 -4.02513868 -0.67085645 0 0 Z " fill="#030303" transform="translate(310,121)"/>
<path d="M0 0 C3 0.25 3 0.25 5 2.25 C5 3.57 5 4.89 5 6.25 C4.01 6.25 3.02 6.25 2 6.25 C1.67 5.59 1.34 4.93 1 4.25 C0.34 4.25 -0.32 4.25 -1 4.25 C-1.33 4.91 -1.66 5.57 -2 6.25 C0.31 6.91 2.62 7.57 5 8.25 C6.3260274 13.67465753 6.3260274 13.67465753 4.9375 16.125 C2.11011239 17.76670894 0.20698706 17.71768561 -3 17.25 C-4.875 15.375 -4.875 15.375 -6 13.25 C-6 12.59 -6 11.93 -6 11.25 C-3.33333333 11.91666667 -0.66666667 12.58333333 2 13.25 C2.33 12.59 2.66 11.93 3 11.25 C0.69 10.59 -1.62 9.93 -4 9.25 C-4.625 5.875 -4.625 5.875 -5 2.25 C-3 0.25 -3 0.25 0 0 Z " fill="#040404" transform="translate(119,115.75)"/>
<path d="M0 0 C0.99 0 1.98 0 3 0 C3 5.61 3 11.22 3 17 C-5.34228909 17.48361096 -5.34228909 17.48361096 -8.125 15.4375 C-9.37658877 11.95093127 -8.91981952 9.54787528 -8 6 C-5 4 -5 4 -2.3125 4.375 C-1.549375 4.58125 -0.78625 4.7875 0 5 C0 3.35 0 1.7 0 0 Z M-5 8 C-5.33 9.32 -5.66 10.64 -6 12 C-4.11683841 13.10836423 -4.11683841 13.10836423 -2 14 C-1.34 13.67 -0.68 13.34 0 13 C-0.33 11.35 -0.66 9.7 -1 8 C-2.32 8 -3.64 8 -5 8 Z " fill="#040404" transform="translate(353,116)"/>
<path d="M0 0 C2.875 0.5 2.875 0.5 4.75 1.8125 C5.875 3.5 5.875 3.5 5.875 6.5 C4.885 6.5 3.895 6.5 2.875 6.5 C2.875 5.84 2.875 5.18 2.875 4.5 C0.565 4.5 -1.745 4.5 -4.125 4.5 C-4.125 7.47 -4.125 10.44 -4.125 13.5 C-1.815 13.5 0.495 13.5 2.875 13.5 C2.875 12.84 2.875 12.18 2.875 11.5 C3.865 11.5 4.855 11.5 5.875 11.5 C5.30155063 14.36724686 5.0135485 15.3614515 2.875 17.5 C-1.13798073 18.12424145 -2.66595495 17.82931492 -6 15.4375 C-8.125 12.5 -8.125 12.5 -8.75 9 C-7.79106712 3.62997586 -5.47365885 0.87578542 0 0 Z " fill="#030303" transform="translate(69.125,115.5)"/>
<path d="M0 0 C8 0 8 0 10.0625 1.0625 C11.55238061 4.1415866 10.67482518 6.74856958 10 10 C7.69 10.33 5.38 10.66 3 11 C3 12.98 3 14.96 3 17 C2.01 17 1.02 17 0 17 C0 11.39 0 5.78 0 0 Z M3 4 C3 4.99 3 5.98 3 7 C4.65 7 6.3 7 8 7 C8 6.01 8 5.02 8 4 C6.35 4 4.7 4 3 4 Z " fill="#030303" transform="translate(210,116)"/>
<path d="M0 0 C2.80163026 4.2024454 2.14489712 7.00104935 2 12 C-0.97 12 -3.94 12 -7 12 C-8.86991497 8.57182255 -9.03332928 7.16664642 -8.25 3.25 C-6.3868141 -1.59428335 -4.66785828 -1.40035748 0 0 Z M-5 3 C-1 4 -1 4 -1 4 Z M-5 7 C-5 7.66 -5 8.32 -5 9 C-4.01 8.67 -3.02 8.34 -2 8 C-2.99 7.67 -3.98 7.34 -5 7 Z " fill="#060606" transform="translate(85,121)"/>
<path d="M0 0 C2.4375 0.75 2.4375 0.75 4.4375 2.75 C4.99166667 8.84583333 4.99166667 8.84583333 3.25 11.6875 C0.74969126 13.15319823 -0.71380656 13.24852135 -3.5625 12.75 C-5.4375 11.1875 -5.4375 11.1875 -6.5625 8.75 C-6.4375 5.125 -6.4375 5.125 -5.5625 1.75 C-2.5625 -0.25 -2.5625 -0.25 0 0 Z M-2.5625 3.75 C1.4375 4.75 1.4375 4.75 1.4375 4.75 Z M-3.5625 7.75 C-3.2325 8.41 -2.9025 9.07 -2.5625 9.75 C-1.2425 9.42 0.0775 9.09 1.4375 8.75 C1.4375 8.42 1.4375 8.09 1.4375 7.75 C-0.2125 7.75 -1.8625 7.75 -3.5625 7.75 Z " fill="#050505" transform="translate(338.5625,120.25)"/>
<path d="M0 0 C1 1 1 1 1.09765625 3.50390625 C1.08605469 4.51324219 1.07445312 5.52257812 1.0625 6.5625 C1.05347656 7.57441406 1.04445313 8.58632812 1.03515625 9.62890625 C1.02355469 10.41136719 1.01195312 11.19382813 1 12 C-5.0546875 12.1953125 -5.0546875 12.1953125 -7 12 C-9 10 -9 10 -9.375 6.0625 C-9.29434554 3.10516989 -9.23854038 2.29154935 -7.3125 -0.0625 C-4.42831368 -1.23176473 -2.92713788 -0.94934202 0 0 Z M-6 3 C-2 4 -2 4 -2 4 Z M-6 7 C-6 7.66 -6 8.32 -6 9 C-4.68 8.67 -3.36 8.34 -2 8 C-3.32 7.67 -4.64 7.34 -6 7 Z " fill="#050505" transform="translate(255,121)"/>
<path d="M0 0 C2 3 2 3 1.75 6.5625 C1 10 1 10 -1 12 C-4.5625 11.75 -4.5625 11.75 -8 11 C-9.54163175 7.9167365 -9.29747535 5.39121901 -9 2 C-6.1966047 -1.32254258 -3.99398664 -1.47146876 0 0 Z M-6 3 C-2 4 -2 4 -2 4 Z M-6 7 C-5.67 7.66 -5.34 8.32 -5 9 C-3.68 8.67 -2.36 8.34 -1 8 C-1 7.67 -1 7.34 -1 7 C-2.65 7 -4.3 7 -6 7 Z " fill="#040404" transform="translate(275,121)"/>
<path d="M0 0 C2 3 2 3 1.75 6.5625 C1 10 1 10 -1 12 C-4.5625 11.75 -4.5625 11.75 -8 11 C-9.54163175 7.9167365 -9.29747535 5.39121901 -9 2 C-6.1966047 -1.32254258 -3.99398664 -1.47146876 0 0 Z M-6 3 C-6 3.33 -6 3.66 -6 4 C-4.35 4 -2.7 4 -1 4 C-1 3.67 -1 3.34 -1 3 C-2.65 3 -4.3 3 -6 3 Z M-6 7 C-5.67 7.66 -5.34 8.32 -5 9 C-3.68 8.67 -2.36 8.34 -1 8 C-1 7.67 -1 7.34 -1 7 C-2.65 7 -4.3 7 -6 7 Z " fill="#040404" transform="translate(105,121)"/>
<path d="M0 0 C2 2 2 2 2.3125 5.4375 C2 9 2 9 0.9375 11 C-2.19241926 12.6154422 -4.68174093 11.79884015 -8 11 C-9.54163175 7.9167365 -9.29747535 5.39121901 -9 2 C-6.17266771 -1.35091234 -4.03066587 -1.37891201 0 0 Z M-6 3 C-6.33 3.99 -6.66 4.98 -7 6 C-6.01 7.485 -6.01 7.485 -5 9 C-3.68 8.67 -2.36 8.34 -1 8 C-1.33 6.35 -1.66 4.7 -2 3 C-3.32 3 -4.64 3 -6 3 Z " fill="#060606" transform="translate(178,121)"/>
<path d="M0 0 C2 2 2 2 2.3125 5.4375 C2 9 2 9 0.8125 10.9375 C-1.66049093 12.38718434 -3.17884512 12.42317323 -6 12 C-7.8125 10.9375 -7.8125 10.9375 -9 9 C-9.4375 5.5 -9.4375 5.5 -9 2 C-6.17266771 -1.35091234 -4.03066587 -1.37891201 0 0 Z M-6 3 C-6 4.65 -6 6.3 -6 8 C-4.05396726 8.59070014 -4.05396726 8.59070014 -2 9 C-0.70366379 7.93354885 -0.70366379 7.93354885 -0.9375 5.4375 C-0.958125 4.633125 -0.97875 3.82875 -1 3 C-2.65 3 -4.3 3 -6 3 Z " fill="#050505" transform="translate(135,121)"/>
<path d="M0 0 C2.6875 0.875 2.6875 0.875 5 2 C5.22174933 3.45635371 5.42698698 4.91522956 5.625 6.375 C5.74101562 7.18710938 5.85703125 7.99921875 5.9765625 8.8359375 C5.98429688 9.55007812 5.99203125 10.26421875 6 11 C5.34 11.66 4.68 12.32 4 13 C0.375 12.625 0.375 12.625 -3 12 C-3.5625 10.0625 -3.5625 10.0625 -4 8 C-3.67 7.67 -3.34 7.34 -3 7 C-3.04125 6.195625 -3.0825 5.39125 -3.125 4.5625 C-3.08375 3.716875 -3.0425 2.87125 -3 2 C-2.01 1.34 -1.02 0.68 0 0 Z M-1 8 C-0.67 8.66 -0.34 9.32 0 10 C0.99 9.67 1.98 9.34 3 9 C1.68 8.67 0.36 8.34 -1 8 Z " fill="#040404" transform="translate(197,120)"/>
<path d="M0 0 C0.99 0 1.98 0 3 0 C3.33 2.64 3.66 5.28 4 8 C4.99 7.67 5.98 7.34 7 7 C7.33 4.69 7.66 2.38 8 0 C8.99 0 9.98 0 11 0 C11 3.63 11 7.26 11 11 C7.66208701 11.83447825 5.3667387 12.35439355 2 12 C-0.13586678 8.79619983 -0.23132175 7.98060033 -0.125 4.3125 C-0.10695312 3.50425781 -0.08890625 2.69601563 -0.0703125 1.86328125 C-0.04710937 1.24839844 -0.02390625 0.63351563 0 0 Z " fill="#020202" transform="translate(143,121)"/>
<path d="M0 0 C1.26237731 2.52475462 1.09856404 4.31200466 1.0625 7.125 C1.05347656 8.03507813 1.04445312 8.94515625 1.03515625 9.8828125 C1.02355469 10.58148438 1.01195312 11.28015625 1 12 C0.01 11.67 -0.98 11.34 -2 11 C-2 8.36 -2 5.72 -2 3 C-3.32 3 -4.64 3 -6 3 C-6.33 5.97 -6.66 8.94 -7 12 C-7.66 12 -8.32 12 -9 12 C-9 8.04 -9 4.08 -9 0 C-5.17943822 -0.95514044 -3.64458987 -1.08352672 0 0 Z " fill="#030303" transform="translate(191,121)"/>
<path d="M0 0 C0.99 0.33 1.98 0.66 3 1 C3 5.29 3 9.58 3 14 C5.31 14 7.62 14 10 14 C9.67 14.99 9.34 15.98 9 17 C6.03 17 3.06 17 0 17 C0 11.39 0 5.78 0 0 Z " fill="#010101" transform="translate(284,116)"/>
<path d="M0 0 C0.99 0 1.98 0 3 0 C3 0.99 3 1.98 3 3 C3.99 3 4.98 3 6 3 C6 3.99 6 4.98 6 6 C5.01 6 4.02 6 3 6 C3.34444881 8.47266765 3.34444881 8.47266765 4 11 C4.66 11.33 5.32 11.66 6 12 C5.67 12.99 5.34 13.98 5 15 C1.125 14.125 1.125 14.125 0 13 C-0.04092937 10.66702567 -0.04241723 8.33294775 0 6 C-0.66 6 -1.32 6 -2 6 C-2 5.01 -2 4.02 -2 3 C-1.34 3 -0.68 3 0 3 C0 2.01 0 1.02 0 0 Z " fill="#020202" transform="translate(259,118)"/>
<path d="M0 0 C1.32 0.33 2.64 0.66 4 1 C5.25 3.5625 5.25 3.5625 6 6 C6.66 4.02 7.32 2.04 8 0 C8.99 0 9.98 0 11 0 C10.45660208 4.56454251 9.20536179 7.9728176 7 12 C6.01 12 5.02 12 4 12 C2.68 8.04 1.36 4.08 0 0 Z " fill="#040404" transform="translate(234,121)"/>
<path d="M0 0 C0.66 0 1.32 0 2 0 C2 0.99 2 1.98 2 3 C2.99 3 3.98 3 5 3 C5 3.99 5 4.98 5 6 C4.01 6 3.02 6 2 6 C2.34444881 8.47266765 2.34444881 8.47266765 3 11 C3.66 11.33 4.32 11.66 5 12 C5 12.99 5 13.98 5 15 C3.35 14.67 1.7 14.34 0 14 C-0.99 10.37 -1.98 6.74 -3 3 C-2.34 3 -1.68 3 -1 3 C-0.67 2.01 -0.34 1.02 0 0 Z " fill="#020202" transform="translate(326,118)"/>
<path d="M0 0 C0.66 0 1.32 0 2 0 C2 0.99 2 1.98 2 3 C3.32 3 4.64 3 6 3 C5.67 3.99 5.34 4.98 5 6 C4.01 6 3.02 6 2 6 C2.33 7.98 2.66 9.96 3 12 C3.66 12 4.32 12 5 12 C5 12.99 5 13.98 5 15 C3.35 14.67 1.7 14.34 0 14 C0 11.36 0 8.72 0 6 C-0.66 6 -1.32 6 -2 6 C-2 5.01 -2 4.02 -2 3 C-1.34 3 -0.68 3 0 3 C0 2.01 0 1.02 0 0 Z " fill="#040404" transform="translate(157,118)"/>
<path d="M0 0 C0 1.32 0 2.64 0 4 C-0.99 4.33 -1.98 4.66 -3 5 C-3.33 7.64 -3.66 10.28 -4 13 C-4.99 12.67 -5.98 12.34 -7 12 C-7 8.37 -7 4.74 -7 1 C-2 0 -2 0 0 0 Z " fill="#030303" transform="translate(229,120)"/>
<path d="M0 0 C0 1.32 0 2.64 0 4 C-0.99 4.33 -1.98 4.66 -3 5 C-3.33 7.64 -3.66 10.28 -4 13 C-4.99 12.67 -5.98 12.34 -7 12 C-7 8.37 -7 4.74 -7 1 C-2 0 -2 0 0 0 Z " fill="#030202" transform="translate(95,120)"/>
<path d="M0 0 C0.66 0 1.32 0 2 0 C3.33431286 5.00367323 4.37905675 12.2418865 2 17 C1.34 17 0.68 17 0 17 C0 11.39 0 5.78 0 0 Z " fill="#010101" transform="translate(139,116)"/>
<path d="M0 0 C0.99 0 1.98 0 3 0 C3 3.96 3 7.92 3 12 C2.01 12 1.02 12 0 12 C0 8.04 0 4.08 0 0 Z " fill="#010101" transform="translate(295,121)"/>
<path d="M0 0 C0.99 0 1.98 0 3 0 C3 3.96 3 7.92 3 12 C2.01 12 1.02 12 0 12 C0 8.04 0 4.08 0 0 Z " fill="#020202" transform="translate(164,121)"/>
<path d="M0 0 C0.99 0 1.98 0 3 0 C3 3.96 3 7.92 3 12 C2.01 11.67 1.02 11.34 0 11 C0 7.37 0 3.74 0 0 Z " fill="#010101" transform="translate(319,121)"/>
<path d="M0 0 C0.99 0 1.98 0 3 0 C3 3.96 3 7.92 3 12 C2.01 11.67 1.02 11.34 0 11 C0 7.37 0 3.74 0 0 Z " fill="#010101" transform="translate(230,121)"/>
<path d="M0 0 C0.66 0 1.32 0 2 0 C2 2.97 2 5.94 2 9 C0.68 8.67 -0.64 8.34 -2 8 C-1.34 7.67 -0.68 7.34 0 7 C-0.185625 6.401875 -0.37125 5.80375 -0.5625 5.1875 C-1 3 -1 3 0 0 Z " fill="#020202" transform="translate(85,124)"/>
<path d="M0 0 C2.97 0 5.94 0 9 0 C9 0.66 9 1.32 9 2 C6.36 2.33 3.72 2.66 1 3 C0.67 2.01 0.34 1.02 0 0 Z " fill="#0C0B0C" transform="translate(332,81)"/>
<path d="M0 0 C0.66 0 1.32 0 2 0 C2 1.32 2 2.64 2 4 C1.01 4.33 0.02 4.66 -1 5 C-1.66 5.66 -2.32 6.32 -3 7 C-3 5.68 -3 4.36 -3 3 C-2.34 3 -1.68 3 -1 3 C-0.67 2.01 -0.34 1.02 0 0 Z " fill="#080808" transform="translate(93,120)"/>
<path d="M0 0 C0.99 0 1.98 0 3 0 C3 1.32 3 2.64 3 4 C2.01 4 1.02 4 0 4 C0 2.68 0 1.36 0 0 Z " fill="#040404" transform="translate(164,116)"/>
<path d="M0 0 C0.99 0 1.98 0 3 0 C3 1.32 3 2.64 3 4 C2.01 4 1.02 4 0 4 C0 2.68 0 1.36 0 0 Z " fill="#010101" transform="translate(295,116)"/>
<path d="M0 0 C0.99 0 1.98 0 3 0 C3 1.32 3 2.64 3 4 C2.01 3.67 1.02 3.34 0 3 C0 2.01 0 1.02 0 0 Z " fill="#010101" transform="translate(319,116)"/>
<path d="M0 0 C0.99 0 1.98 0 3 0 C3 1.32 3 2.64 3 4 C2.01 3.67 1.02 3.34 0 3 C0 2.01 0 1.02 0 0 Z " fill="#010101" transform="translate(230,116)"/>
</svg>
