<svg xmlns="http://www.w3.org/2000/svg" xmlns:xlink="http://www.w3.org/1999/xlink" width="794" zoomAndPan="magnify" viewBox="0 0 594.95996 842.24997" height="1123" preserveAspectRatio="xMidYMid meet" version="1.0"><defs><filter x="0%" y="0%" width="100%" height="100%" id="3f99772559"><feColorMatrix values="0 0 0 0 1 0 0 0 0 1 0 0 0 0 1 0 0 0 1 0" color-interpolation-filters="sRGB"/></filter><g/><clipPath id="335bb1688e"><path d="M 0.246094 0 L 594.675781 0 L 594.675781 841.5 L 0.246094 841.5 Z M 0.246094 0 " clip-rule="nonzero"/></clipPath><clipPath id="f4e4774964"><path d="M 53.296875 600.941406 L 76.535156 600.941406 L 76.535156 642.640625 L 53.296875 642.640625 Z M 53.296875 600.941406 " clip-rule="nonzero"/></clipPath><clipPath id="7eb084a39b"><path d="M 67.683594 611.679688 C 70.605469 628.839844 73.828125 633.1875 73.828125 636.035156 C 73.753906 637.90625 73.003906 639.40625 71.957031 640.453125 C 70.90625 641.578125 69.035156 642.328125 67.683594 642.554688 C 66.5625 642.703125 65.511719 642.554688 64.460938 642.101562 C 63.261719 641.503906 61.914062 640.605469 61.015625 638.804688 C 59.140625 635.210938 58.09375 623.445312 58.316406 619.773438 C 58.46875 618.273438 58.617188 617.675781 59.21875 616.699219 C 59.964844 615.5 61.613281 614.152344 62.890625 613.628906 C 63.9375 613.179688 65.0625 613.179688 66.109375 613.328125 C 67.160156 613.480469 68.210938 613.929688 69.109375 614.601562 C 69.933594 615.203125 70.457031 615.800781 71.132812 617.074219 C 72.554688 619.625 75.253906 626.59375 75.628906 629.890625 C 75.851562 631.835938 75.777344 633.335938 75.179688 634.683594 C 74.503906 635.957031 73.003906 637.308594 71.65625 637.90625 C 70.230469 638.429688 68.132812 638.355469 66.859375 637.980469 C 65.738281 637.683594 64.835938 636.933594 64.164062 636.183594 C 63.414062 635.433594 63.113281 634.757812 62.589844 633.335938 C 61.390625 629.890625 60.640625 618.875 59.667969 614.152344 C 59.066406 611.230469 57.644531 609.28125 57.867188 607.257812 C 58.019531 605.609375 58.917969 603.960938 59.890625 602.914062 C 60.640625 602.089844 61.539062 601.5625 62.664062 601.265625 C 63.9375 600.964844 66.109375 601.113281 67.386719 601.640625 C 68.433594 602.015625 69.257812 602.839844 69.933594 603.664062 C 70.53125 604.488281 71.132812 605.3125 71.207031 606.585938 C 71.355469 608.683594 69.707031 611.605469 69.109375 615.050781 C 68.210938 620.222656 68.808594 631.164062 66.933594 634.757812 C 65.960938 636.484375 64.539062 637.308594 63.339844 637.90625 C 62.289062 638.355469 61.242188 638.507812 60.117188 638.28125 C 58.765625 638.058594 56.820312 637.007812 55.921875 636.035156 C 55.097656 635.285156 54.644531 634.683594 54.421875 633.1875 C 53.597656 629.140625 55.320312 613.703125 57.042969 609.207031 C 57.867188 607.257812 58.765625 606.136719 59.890625 605.386719 C 60.789062 604.710938 61.839844 604.335938 62.964844 604.261719 C 64.3125 604.261719 66.410156 604.785156 67.535156 605.535156 C 68.507812 606.136719 68.882812 606.660156 69.632812 608.007812 C 71.582031 611.832031 78.476562 628.164062 75.851562 631.988281 C 73.980469 634.835938 65.660156 635.882812 62.515625 633.710938 C 58.316406 630.863281 56.746094 614.902344 56.820312 610.855469 C 56.820312 609.28125 57.195312 608.609375 57.71875 607.707031 C 58.167969 606.808594 58.992188 605.910156 59.890625 605.386719 C 60.789062 604.785156 61.914062 604.410156 62.964844 604.261719 C 64.011719 604.1875 65.136719 604.335938 66.109375 604.785156 C 67.085938 605.160156 68.058594 605.761719 68.734375 606.660156 C 69.558594 607.785156 70.082031 609.058594 70.308594 611.15625 C 70.757812 615.953125 68.660156 631.011719 66.933594 634.757812 C 66.261719 636.109375 65.585938 636.558594 64.761719 637.15625 C 63.9375 637.757812 62.890625 638.207031 61.765625 638.28125 C 60.339844 638.355469 58.316406 637.980469 57.117188 637.15625 C 55.84375 636.257812 54.871094 634.835938 54.421875 633.1875 C 53.746094 631.089844 54.121094 628.164062 54.347656 625.46875 C 54.496094 622.46875 54.945312 619.25 55.546875 616.101562 C 56.21875 612.65625 57.195312 607.933594 58.167969 605.6875 C 58.691406 604.410156 59.140625 603.664062 59.890625 602.914062 C 60.566406 602.164062 61.613281 601.5625 62.664062 601.265625 C 63.636719 600.964844 64.835938 600.890625 65.886719 601.113281 C 66.859375 601.339844 67.984375 601.789062 68.808594 602.464844 C 69.632812 603.136719 70.15625 603.886719 70.757812 605.011719 C 71.65625 606.882812 72.40625 609.65625 73.078125 612.878906 C 74.203125 617.75 76.226562 627.417969 75.851562 631.539062 C 75.628906 633.5625 75.179688 634.910156 74.277344 636.035156 C 73.304688 637.15625 71.429688 638.058594 70.082031 638.28125 C 68.957031 638.507812 67.835938 638.355469 66.859375 637.980469 C 65.886719 637.605469 65.0625 637.308594 64.164062 636.183594 C 62.140625 633.5625 58.242188 623.519531 58.316406 619.773438 C 58.394531 617.824219 59.292969 616.402344 60.191406 615.351562 C 60.867188 614.527344 61.765625 613.929688 62.890625 613.628906 C 64.238281 613.253906 66.261719 613.179688 67.683594 613.777344 C 69.035156 614.378906 70.308594 615.578125 71.132812 617.074219 C 72.179688 618.875 72.554688 621.496094 73.003906 624.195312 C 73.53125 627.640625 74.277344 633.109375 73.828125 636.035156 C 73.53125 637.90625 72.855469 639.40625 71.957031 640.453125 C 71.28125 641.355469 70.230469 641.878906 69.257812 642.253906 C 68.285156 642.554688 67.085938 642.703125 66.035156 642.554688 C 64.988281 642.328125 64.085938 642.101562 63.039062 641.277344 C 61.316406 639.855469 59.21875 636.933594 57.792969 633.5625 C 55.769531 628.464844 51.574219 616.25 54.121094 612.878906 C 56.144531 610.179688 67.683594 611.679688 67.683594 611.679688 " clip-rule="nonzero"/></clipPath><mask id="38bd2df4b1"><g filter="url(#3f99772559)"><rect x="-59.495996" width="713.951952" fill="#000000" y="-84.224997" height="1010.699964" fill-opacity="0.5"/></g></mask><clipPath id="46cd4f66b3"><path d="M 0.296875 0.941406 L 23.535156 0.941406 L 23.535156 42.640625 L 0.296875 42.640625 Z M 0.296875 0.941406 " clip-rule="nonzero"/></clipPath><clipPath id="495407472f"><path d="M 14.683594 11.679688 C 17.605469 28.839844 20.828125 33.1875 20.828125 36.035156 C 20.753906 37.90625 20.003906 39.40625 18.957031 40.453125 C 17.90625 41.578125 16.035156 42.328125 14.683594 42.554688 C 13.5625 42.703125 12.511719 42.554688 11.460938 42.101562 C 10.261719 41.503906 8.914062 40.605469 8.015625 38.804688 C 6.140625 35.210938 5.09375 23.445312 5.316406 19.773438 C 5.46875 18.273438 5.617188 17.675781 6.21875 16.699219 C 6.964844 15.5 8.613281 14.152344 9.890625 13.628906 C 10.9375 13.179688 12.0625 13.179688 13.109375 13.328125 C 14.160156 13.480469 15.210938 13.929688 16.109375 14.601562 C 16.933594 15.203125 17.457031 15.800781 18.132812 17.074219 C 19.554688 19.625 22.253906 26.59375 22.628906 29.890625 C 22.851562 31.835938 22.777344 33.335938 22.179688 34.683594 C 21.503906 35.957031 20.003906 37.308594 18.65625 37.90625 C 17.230469 38.429688 15.132812 38.355469 13.859375 37.980469 C 12.738281 37.683594 11.835938 36.933594 11.164062 36.183594 C 10.414062 35.433594 10.113281 34.757812 9.589844 33.335938 C 8.390625 29.890625 7.640625 18.875 6.667969 14.152344 C 6.066406 11.230469 4.644531 9.28125 4.867188 7.257812 C 5.019531 5.609375 5.917969 3.960938 6.890625 2.914062 C 7.640625 2.089844 8.539062 1.5625 9.664062 1.265625 C 10.9375 0.964844 13.109375 1.113281 14.386719 1.640625 C 15.433594 2.015625 16.257812 2.839844 16.933594 3.664062 C 17.53125 4.488281 18.132812 5.3125 18.207031 6.585938 C 18.355469 8.683594 16.707031 11.605469 16.109375 15.050781 C 15.210938 20.222656 15.808594 31.164062 13.933594 34.757812 C 12.960938 36.484375 11.539062 37.308594 10.339844 37.90625 C 9.289062 38.355469 8.242188 38.507812 7.117188 38.28125 C 5.765625 38.058594 3.820312 37.007812 2.921875 36.035156 C 2.097656 35.285156 1.644531 34.683594 1.421875 33.1875 C 0.597656 29.140625 2.320312 13.703125 4.042969 9.207031 C 4.867188 7.257812 5.765625 6.136719 6.890625 5.386719 C 7.789062 4.710938 8.839844 4.335938 9.964844 4.261719 C 11.3125 4.261719 13.410156 4.785156 14.535156 5.535156 C 15.507812 6.136719 15.882812 6.660156 16.632812 8.007812 C 18.582031 11.832031 25.476562 28.164062 22.851562 31.988281 C 20.980469 34.835938 12.660156 35.882812 9.515625 33.710938 C 5.316406 30.863281 3.746094 14.902344 3.820312 10.855469 C 3.820312 9.28125 4.195312 8.609375 4.71875 7.707031 C 5.167969 6.808594 5.992188 5.910156 6.890625 5.386719 C 7.789062 4.785156 8.914062 4.410156 9.964844 4.261719 C 11.011719 4.1875 12.136719 4.335938 13.109375 4.785156 C 14.085938 5.160156 15.058594 5.761719 15.734375 6.660156 C 16.558594 7.785156 17.082031 9.058594 17.308594 11.15625 C 17.757812 15.953125 15.660156 31.011719 13.933594 34.757812 C 13.261719 36.109375 12.585938 36.558594 11.761719 37.15625 C 10.9375 37.757812 9.890625 38.207031 8.765625 38.28125 C 7.339844 38.355469 5.316406 37.980469 4.117188 37.15625 C 2.84375 36.257812 1.871094 34.835938 1.421875 33.1875 C 0.746094 31.089844 1.121094 28.164062 1.347656 25.46875 C 1.496094 22.46875 1.945312 19.25 2.546875 16.101562 C 3.21875 12.65625 4.195312 7.933594 5.167969 5.6875 C 5.691406 4.410156 6.140625 3.664062 6.890625 2.914062 C 7.566406 2.164062 8.613281 1.5625 9.664062 1.265625 C 10.636719 0.964844 11.835938 0.890625 12.886719 1.113281 C 13.859375 1.339844 14.984375 1.789062 15.808594 2.464844 C 16.632812 3.136719 17.15625 3.886719 17.757812 5.011719 C 18.65625 6.882812 19.40625 9.65625 20.078125 12.878906 C 21.203125 17.75 23.226562 27.417969 22.851562 31.539062 C 22.628906 33.5625 22.179688 34.910156 21.277344 36.035156 C 20.304688 37.15625 18.429688 38.058594 17.082031 38.28125 C 15.957031 38.507812 14.835938 38.355469 13.859375 37.980469 C 12.886719 37.605469 12.0625 37.308594 11.164062 36.183594 C 9.140625 33.5625 5.242188 23.519531 5.316406 19.773438 C 5.394531 17.824219 6.292969 16.402344 7.191406 15.351562 C 7.867188 14.527344 8.765625 13.929688 9.890625 13.628906 C 11.238281 13.253906 13.261719 13.179688 14.683594 13.777344 C 16.035156 14.378906 17.308594 15.578125 18.132812 17.074219 C 19.179688 18.875 19.554688 21.496094 20.003906 24.195312 C 20.53125 27.640625 21.277344 33.109375 20.828125 36.035156 C 20.53125 37.90625 19.855469 39.40625 18.957031 40.453125 C 18.28125 41.355469 17.230469 41.878906 16.257812 42.253906 C 15.285156 42.554688 14.085938 42.703125 13.035156 42.554688 C 11.988281 42.328125 11.085938 42.101562 10.039062 41.277344 C 8.316406 39.855469 6.21875 36.933594 4.792969 33.5625 C 2.769531 28.464844 -1.425781 16.25 1.121094 12.878906 C 3.144531 10.179688 14.683594 11.679688 14.683594 11.679688 " clip-rule="nonzero"/></clipPath><clipPath id="954ab49652"><rect x="0" width="24" y="0" height="43"/></clipPath><clipPath id="5c7139b55f"><path d="M 56.945312 602 L 75.9375 602 L 75.9375 648.511719 L 56.945312 648.511719 Z M 56.945312 602 " clip-rule="nonzero"/></clipPath><clipPath id="ec33ea1d55"><path d="M 74.878906 624.644531 C 74.726562 643.226562 74.578125 643.902344 74.128906 644.875 C 73.605469 645.773438 72.855469 646.675781 71.957031 647.273438 C 71.132812 647.871094 70.082031 648.324219 68.957031 648.398438 C 67.609375 648.472656 65.511719 647.949219 64.3125 647.273438 C 63.339844 646.675781 62.8125 646 62.140625 644.875 C 61.015625 642.777344 60.117188 638.65625 59.367188 635.058594 C 58.394531 630.636719 57.570312 623.96875 57.34375 620.148438 C 57.195312 617.675781 57.042969 615.652344 57.492188 614.003906 C 57.792969 612.878906 58.242188 611.980469 58.992188 611.15625 C 59.667969 610.40625 60.640625 609.730469 61.613281 609.355469 C 62.589844 608.984375 63.789062 608.832031 64.835938 608.90625 C 65.886719 609.058594 67.011719 609.433594 67.835938 610.03125 C 68.734375 610.632812 69.40625 611.082031 70.007812 612.429688 C 71.507812 615.875 72.332031 629.066406 71.804688 633.484375 C 71.507812 635.582031 71.132812 636.859375 70.15625 637.980469 C 69.257812 639.105469 67.460938 640.078125 66.035156 640.304688 C 64.539062 640.53125 62.589844 640.078125 61.316406 639.253906 C 60.117188 638.429688 59.21875 637.382812 58.542969 635.359375 C 56.96875 630.5625 57.792969 613.253906 58.316406 608.757812 C 58.46875 607.183594 58.617188 606.511719 59.066406 605.609375 C 59.59375 604.710938 60.339844 603.8125 61.242188 603.210938 C 62.066406 602.613281 63.1875 602.164062 64.238281 602.089844 C 65.285156 601.9375 66.410156 602.015625 67.460938 602.464844 C 68.734375 602.988281 70.308594 604.410156 71.054688 605.609375 C 71.582031 606.585938 71.65625 607.335938 71.804688 608.757812 C 72.105469 611.457031 71.429688 616.324219 71.804688 620.597656 C 72.253906 625.84375 74.953125 634.308594 74.804688 637.683594 C 74.726562 639.179688 74.429688 639.929688 73.980469 640.828125 C 73.453125 641.726562 72.707031 642.628906 71.730469 643.226562 C 70.605469 643.902344 68.433594 644.351562 67.085938 644.277344 C 65.960938 644.125 64.988281 643.75 64.085938 643.003906 C 63.039062 642.179688 62.066406 641.128906 61.464844 639.03125 C 59.964844 634.011719 60.492188 615.5 61.613281 611.082031 C 61.988281 609.582031 62.289062 608.984375 63.113281 608.234375 C 64.085938 607.257812 65.886719 606.136719 67.308594 605.984375 C 68.808594 605.835938 70.757812 606.285156 71.957031 607.109375 C 73.230469 608.007812 74.054688 609.058594 74.726562 611.082031 C 76.226562 616.027344 76.226562 633.710938 74.726562 638.582031 C 74.054688 640.679688 73.230469 641.652344 71.957031 642.554688 C 70.757812 643.378906 68.808594 643.828125 67.308594 643.675781 C 65.886719 643.527344 64.085938 642.554688 63.113281 641.429688 C 62.140625 640.304688 60.789062 637.90625 61.390625 637.007812 C 62.515625 635.433594 73.753906 635.582031 74.878906 637.007812 C 75.402344 637.683594 74.726562 639.179688 74.128906 640.15625 C 73.378906 641.277344 71.957031 642.777344 70.53125 643.300781 C 69.109375 643.828125 67.160156 643.828125 65.738281 643.300781 C 64.386719 642.777344 62.890625 641.277344 62.140625 640.15625 C 61.613281 639.179688 61.613281 638.582031 61.390625 637.007812 C 60.867188 632.511719 60.117188 615.800781 61.613281 611.082031 C 62.214844 609.058594 63.113281 608.007812 64.3125 607.109375 C 65.511719 606.285156 67.460938 605.835938 68.957031 605.984375 C 70.457031 606.136719 72.179688 607.109375 73.230469 608.234375 C 74.203125 609.355469 74.503906 610.480469 74.878906 612.65625 C 75.777344 617.824219 75.703125 635.058594 74.578125 639.332031 C 74.128906 640.828125 73.679688 641.355469 73.003906 642.179688 C 72.253906 642.925781 71.355469 643.601562 70.308594 643.902344 C 68.957031 644.277344 66.933594 644.351562 65.511719 643.828125 C 64.164062 643.300781 62.890625 642.101562 61.988281 640.605469 C 60.789062 638.507812 60.492188 634.835938 59.890625 631.6875 C 59.21875 628.242188 58.542969 624.417969 58.316406 620.597656 C 58.019531 616.777344 58.019531 611.457031 58.316406 608.757812 C 58.46875 607.335938 58.46875 606.585938 59.066406 605.609375 C 59.816406 604.410156 61.242188 602.988281 62.664062 602.464844 C 64.085938 601.9375 66.109375 602.015625 67.460938 602.464844 C 68.507812 602.761719 69.40625 603.363281 70.082031 604.261719 C 70.980469 605.386719 71.429688 606.585938 71.804688 608.757812 C 72.707031 613.628906 72.253906 629.140625 71.804688 633.484375 C 71.65625 635.058594 71.582031 635.660156 71.054688 636.632812 C 70.605469 637.53125 69.859375 638.429688 69.035156 639.105469 C 68.132812 639.707031 67.011719 640.15625 66.035156 640.304688 C 64.988281 640.453125 63.863281 640.378906 62.8125 639.929688 C 61.539062 639.40625 60.042969 638.507812 59.140625 636.859375 C 57.644531 634.234375 57.570312 628.242188 57.269531 624.195312 C 57.042969 620.671875 56.667969 616.550781 57.492188 614.003906 C 58.019531 612.28125 59.066406 610.929688 60.191406 610.105469 C 61.089844 609.355469 62.140625 609.058594 63.1875 608.90625 C 64.238281 608.757812 65.4375 608.90625 66.410156 609.28125 C 67.386719 609.65625 68.359375 610.332031 69.035156 611.15625 C 69.78125 611.90625 70.15625 612.65625 70.605469 614.003906 C 71.355469 616.625 71.132812 622.394531 71.804688 626.816406 C 72.554688 631.613281 75.179688 638.207031 74.878906 641.726562 C 74.726562 643.675781 74.203125 645.101562 73.230469 646.222656 C 72.179688 647.273438 70.308594 648.171875 68.957031 648.398438 C 67.835938 648.621094 66.785156 648.472656 65.738281 648.023438 C 64.539062 647.421875 62.890625 646 62.140625 644.875 C 61.613281 643.902344 61.613281 643.226562 61.390625 641.726562 C 60.941406 638.28125 58.617188 627.339844 61.242188 624.644531 C 63.636719 622.246094 74.878906 624.644531 74.878906 624.644531 " clip-rule="nonzero"/></clipPath><mask id="529ca90d9d"><g filter="url(#3f99772559)"><rect x="-59.495996" width="713.951952" fill="#000000" y="-84.224997" height="1010.699964" fill-opacity="0.5"/></g></mask><clipPath id="df24858431"><path d="M 0.945312 0 L 19.9375 0 L 19.9375 46.511719 L 0.945312 46.511719 Z M 0.945312 0 " clip-rule="nonzero"/></clipPath><clipPath id="dc1037887e"><path d="M 18.878906 22.644531 C 18.726562 41.226562 18.578125 41.902344 18.128906 42.875 C 17.605469 43.773438 16.855469 44.675781 15.957031 45.273438 C 15.132812 45.871094 14.082031 46.324219 12.957031 46.398438 C 11.609375 46.472656 9.511719 45.949219 8.3125 45.273438 C 7.339844 44.675781 6.8125 44 6.140625 42.875 C 5.015625 40.777344 4.117188 36.65625 3.367188 33.058594 C 2.394531 28.636719 1.570312 21.96875 1.34375 18.148438 C 1.195312 15.675781 1.042969 13.652344 1.492188 12.003906 C 1.792969 10.878906 2.242188 9.980469 2.992188 9.15625 C 3.667969 8.40625 4.640625 7.730469 5.613281 7.355469 C 6.589844 6.984375 7.789062 6.832031 8.835938 6.90625 C 9.886719 7.058594 11.011719 7.433594 11.835938 8.03125 C 12.734375 8.632812 13.40625 9.082031 14.007812 10.429688 C 15.507812 13.875 16.332031 27.066406 15.804688 31.484375 C 15.507812 33.582031 15.132812 34.859375 14.15625 35.980469 C 13.257812 37.105469 11.460938 38.078125 10.035156 38.304688 C 8.539062 38.53125 6.589844 38.078125 5.316406 37.253906 C 4.117188 36.429688 3.21875 35.382812 2.542969 33.359375 C 0.96875 28.5625 1.792969 11.253906 2.316406 6.757812 C 2.46875 5.183594 2.617188 4.511719 3.066406 3.609375 C 3.59375 2.710938 4.339844 1.8125 5.242188 1.210938 C 6.066406 0.613281 7.1875 0.164062 8.238281 0.0898438 C 9.285156 -0.0625 10.410156 0.015625 11.460938 0.464844 C 12.734375 0.988281 14.308594 2.410156 15.054688 3.609375 C 15.582031 4.585938 15.65625 5.335938 15.804688 6.757812 C 16.105469 9.457031 15.429688 14.324219 15.804688 18.597656 C 16.253906 23.84375 18.953125 32.308594 18.804688 35.683594 C 18.726562 37.179688 18.429688 37.929688 17.980469 38.828125 C 17.453125 39.726562 16.707031 40.628906 15.730469 41.226562 C 14.605469 41.902344 12.433594 42.351562 11.085938 42.277344 C 9.960938 42.125 8.988281 41.75 8.085938 41.003906 C 7.039062 40.179688 6.066406 39.128906 5.464844 37.03125 C 3.964844 32.011719 4.492188 13.5 5.613281 9.082031 C 5.988281 7.582031 6.289062 6.984375 7.113281 6.234375 C 8.085938 5.257812 9.886719 4.136719 11.308594 3.984375 C 12.808594 3.835938 14.757812 4.285156 15.957031 5.109375 C 17.230469 6.007812 18.054688 7.058594 18.726562 9.082031 C 20.226562 14.027344 20.226562 31.710938 18.726562 36.582031 C 18.054688 38.679688 17.230469 39.652344 15.957031 40.554688 C 14.757812 41.378906 12.808594 41.828125 11.308594 41.675781 C 9.886719 41.527344 8.085938 40.554688 7.113281 39.429688 C 6.140625 38.304688 4.789062 35.90625 5.390625 35.007812 C 6.515625 33.433594 17.753906 33.582031 18.878906 35.007812 C 19.402344 35.683594 18.726562 37.179688 18.128906 38.15625 C 17.378906 39.277344 15.957031 40.777344 14.53125 41.300781 C 13.109375 41.828125 11.160156 41.828125 9.738281 41.300781 C 8.386719 40.777344 6.890625 39.277344 6.140625 38.15625 C 5.613281 37.179688 5.613281 36.582031 5.390625 35.007812 C 4.867188 30.511719 4.117188 13.800781 5.613281 9.082031 C 6.214844 7.058594 7.113281 6.007812 8.3125 5.109375 C 9.511719 4.285156 11.460938 3.835938 12.957031 3.984375 C 14.457031 4.136719 16.179688 5.109375 17.230469 6.234375 C 18.203125 7.355469 18.503906 8.480469 18.878906 10.65625 C 19.777344 15.824219 19.703125 33.058594 18.578125 37.332031 C 18.128906 38.828125 17.679688 39.355469 17.003906 40.179688 C 16.253906 40.925781 15.355469 41.601562 14.308594 41.902344 C 12.957031 42.277344 10.933594 42.351562 9.511719 41.828125 C 8.164062 41.300781 6.890625 40.101562 5.988281 38.605469 C 4.789062 36.507812 4.492188 32.835938 3.890625 29.6875 C 3.21875 26.242188 2.542969 22.417969 2.316406 18.597656 C 2.019531 14.777344 2.019531 9.457031 2.316406 6.757812 C 2.46875 5.335938 2.46875 4.585938 3.066406 3.609375 C 3.816406 2.410156 5.242188 0.988281 6.664062 0.464844 C 8.085938 -0.0625 10.109375 0.015625 11.460938 0.464844 C 12.507812 0.761719 13.40625 1.363281 14.082031 2.261719 C 14.980469 3.386719 15.429688 4.585938 15.804688 6.757812 C 16.707031 11.628906 16.253906 27.140625 15.804688 31.484375 C 15.65625 33.058594 15.582031 33.660156 15.054688 34.632812 C 14.605469 35.53125 13.859375 36.429688 13.035156 37.105469 C 12.132812 37.707031 11.011719 38.15625 10.035156 38.304688 C 8.988281 38.453125 7.863281 38.378906 6.8125 37.929688 C 5.539062 37.40625 4.042969 36.507812 3.140625 34.859375 C 1.644531 32.234375 1.570312 26.242188 1.269531 22.195312 C 1.042969 18.671875 0.667969 14.550781 1.492188 12.003906 C 2.019531 10.28125 3.066406 8.929688 4.191406 8.105469 C 5.089844 7.355469 6.140625 7.058594 7.1875 6.90625 C 8.238281 6.757812 9.4375 6.90625 10.410156 7.28125 C 11.386719 7.65625 12.359375 8.332031 13.035156 9.15625 C 13.78125 9.90625 14.15625 10.65625 14.605469 12.003906 C 15.355469 14.625 15.132812 20.394531 15.804688 24.816406 C 16.554688 29.613281 19.179688 36.207031 18.878906 39.726562 C 18.726562 41.675781 18.203125 43.101562 17.230469 44.222656 C 16.179688 45.273438 14.308594 46.171875 12.957031 46.398438 C 11.835938 46.621094 10.785156 46.472656 9.738281 46.023438 C 8.539062 45.421875 6.890625 44 6.140625 42.875 C 5.613281 41.902344 5.613281 41.226562 5.390625 39.726562 C 4.941406 36.28125 2.617188 25.339844 5.242188 22.644531 C 7.636719 20.246094 18.878906 22.644531 18.878906 22.644531 " clip-rule="nonzero"/></clipPath><clipPath id="186121933b"><rect x="0" width="20" y="0" height="47"/></clipPath><clipPath id="9fc14c2fc3"><path d="M 57.375 613.3125 L 76 613.3125 L 76 650 L 57.375 650 Z M 57.375 613.3125 " clip-rule="nonzero"/></clipPath><clipPath id="74065f2c94"><path d="M 71.730469 613.628906 C 75.550781 646 74.804688 647.125 73.753906 648.171875 C 72.628906 649.148438 70.605469 649.820312 69.257812 649.894531 C 68.132812 649.972656 67.085938 649.671875 66.109375 649.148438 C 65.210938 648.699219 64.3125 647.949219 63.714844 647.046875 C 63.113281 646.222656 62.664062 645.101562 62.515625 644.050781 C 62.363281 643.003906 62.140625 641.128906 62.890625 640.679688 C 64.460938 639.78125 73.902344 646.597656 75.476562 645.625 C 76.226562 645.175781 75.925781 642.253906 75.851562 642.253906 C 75.777344 642.253906 75.628906 645.699219 74.804688 646.898438 C 73.980469 648.171875 72.179688 649.222656 70.90625 649.671875 C 69.78125 650.046875 68.734375 650.046875 67.683594 649.746094 C 66.335938 649.371094 64.761719 648.621094 63.714844 647.046875 C 61.914062 644.425781 61.539062 638.355469 60.640625 633.484375 C 59.667969 627.789062 55.769531 618.273438 58.242188 615.128906 C 60.339844 612.429688 71.730469 613.628906 71.730469 613.628906 " clip-rule="nonzero"/></clipPath><mask id="4c1e10ab02"><g filter="url(#3f99772559)"><rect x="-59.495996" width="713.951952" fill="#000000" y="-84.224997" height="1010.699964" fill-opacity="0.5"/></g></mask><clipPath id="4fa19fd46a"><path d="M 0.375 0.3125 L 19 0.3125 L 19 37 L 0.375 37 Z M 0.375 0.3125 " clip-rule="nonzero"/></clipPath><clipPath id="6239a92b7f"><path d="M 14.730469 0.628906 C 18.550781 33 17.804688 34.125 16.753906 35.171875 C 15.628906 36.148438 13.605469 36.820312 12.257812 36.894531 C 11.132812 36.972656 10.085938 36.671875 9.109375 36.148438 C 8.210938 35.699219 7.3125 34.949219 6.714844 34.046875 C 6.113281 33.222656 5.664062 32.101562 5.515625 31.050781 C 5.363281 30.003906 5.140625 28.128906 5.890625 27.679688 C 7.460938 26.78125 16.902344 33.597656 18.476562 32.625 C 19.226562 32.175781 18.925781 29.253906 18.851562 29.253906 C 18.777344 29.253906 18.628906 32.699219 17.804688 33.898438 C 16.980469 35.171875 15.179688 36.222656 13.90625 36.671875 C 12.78125 37.046875 11.734375 37.046875 10.683594 36.746094 C 9.335938 36.371094 7.761719 35.621094 6.714844 34.046875 C 4.914062 31.425781 4.539062 25.355469 3.640625 20.484375 C 2.667969 14.789062 -1.230469 5.273438 1.242188 2.128906 C 3.339844 -0.570312 14.730469 0.628906 14.730469 0.628906 " clip-rule="nonzero"/></clipPath><clipPath id="90f917adc6"><rect x="0" width="19" y="0" height="37"/></clipPath></defs><g clip-path="url(#335bb1688e)"><path fill="#ffffff" d="M 0.246094 0 L 595.214844 0 L 595.214844 841.5 L 0.246094 841.5 Z M 0.246094 0 " fill-opacity="1" fill-rule="nonzero"/></g><g clip-path="url(#f4e4774964)"><g clip-path="url(#7eb084a39b)"><g mask="url(#38bd2df4b1)"><g transform="matrix(1, 0, 0, 1, 53, 600)"><g clip-path="url(#954ab49652)"><g clip-path="url(#46cd4f66b3)"><g clip-path="url(#495407472f)"><rect x="-183.891191" width="856.742342" fill="#ffffff" height="1212.839957" y="-785.294993" fill-opacity="1"/></g></g></g></g></g></g></g><g clip-path="url(#5c7139b55f)"><g clip-path="url(#ec33ea1d55)"><g mask="url(#529ca90d9d)"><g transform="matrix(1, 0, 0, 1, 56, 602)"><g clip-path="url(#186121933b)"><g clip-path="url(#df24858431)"><g clip-path="url(#dc1037887e)"><rect x="-186.891191" width="856.742342" fill="#ffffff" height="1212.839957" y="-787.294993" fill-opacity="1"/></g></g></g></g></g></g></g><g clip-path="url(#9fc14c2fc3)"><g clip-path="url(#74065f2c94)"><g mask="url(#4c1e10ab02)"><g transform="matrix(1, 0, 0, 1, 57, 613)"><g clip-path="url(#90f917adc6)"><g clip-path="url(#4fa19fd46a)"><g clip-path="url(#6239a92b7f)"><rect x="-187.891191" width="856.742342" fill="#ffffff" height="1212.839957" y="-798.294993" fill-opacity="1"/></g></g></g></g></g></g></g><g fill="#000000" fill-opacity="1"><g transform="translate(144.869273, 373.741774)"><g><path d="M 20.078125 0 L 18.1875 -7.515625 L 8.78125 -7.515625 L 6.890625 0 L 0.875 0 L 9.578125 -30.65625 L 17.5625 -30.65625 L 26.265625 0 Z M 14.75 -19.640625 L 13.796875 -24.953125 L 13.09375 -24.953125 L 12.125 -19.640625 L 10.328125 -12.5625 L 16.640625 -12.5625 Z M 14.75 -19.640625 "/></g></g></g><g fill="#000000" fill-opacity="1"><g transform="translate(172.008504, 373.741774)"><g><path d="M 9.09375 -30.65625 L 9.09375 -10.765625 C 9.09375 -8.742188 9.4375 -7.285156 10.125 -6.390625 C 10.8125 -5.492188 12.046875 -5.046875 13.828125 -5.046875 C 15.617188 -5.046875 16.859375 -5.492188 17.546875 -6.390625 C 18.234375 -7.285156 18.578125 -8.742188 18.578125 -10.765625 L 18.578125 -30.65625 L 24.859375 -30.65625 L 24.859375 -11.59375 C 24.859375 -9.425781 24.664062 -7.582031 24.28125 -6.0625 C 23.90625 -4.539062 23.285156 -3.285156 22.421875 -2.296875 C 21.554688 -1.316406 20.421875 -0.597656 19.015625 -0.140625 C 17.609375 0.304688 15.878906 0.53125 13.828125 0.53125 C 11.785156 0.53125 10.0625 0.304688 8.65625 -0.140625 C 7.25 -0.597656 6.113281 -1.316406 5.25 -2.296875 C 4.382812 -3.285156 3.757812 -4.539062 3.375 -6.0625 C 3 -7.582031 2.8125 -9.425781 2.8125 -11.59375 L 2.8125 -30.65625 Z M 9.09375 -30.65625 "/></g></g></g><g fill="#000000" fill-opacity="1"><g transform="translate(199.674712, 373.741774)"><g><path d="M 14.234375 0.53125 C 12.390625 0.53125 10.710938 0.253906 9.203125 -0.296875 C 7.691406 -0.859375 6.398438 -1.753906 5.328125 -2.984375 C 4.265625 -4.210938 3.429688 -5.820312 2.828125 -7.8125 C 2.234375 -9.8125 1.9375 -12.242188 1.9375 -15.109375 C 1.9375 -17.972656 2.234375 -20.421875 2.828125 -22.453125 C 3.429688 -24.492188 4.265625 -26.160156 5.328125 -27.453125 C 6.398438 -28.742188 7.691406 -29.6875 9.203125 -30.28125 C 10.710938 -30.882812 12.390625 -31.1875 14.234375 -31.1875 C 16.984375 -31.1875 19.15625 -30.59375 20.75 -29.40625 C 22.34375 -28.21875 23.65625 -26.425781 24.6875 -24.03125 L 19.234375 -21.21875 C 19.054688 -21.863281 18.859375 -22.460938 18.640625 -23.015625 C 18.421875 -23.566406 18.117188 -24.03125 17.734375 -24.40625 C 17.359375 -24.789062 16.882812 -25.09375 16.3125 -25.3125 C 15.738281 -25.539062 15.046875 -25.65625 14.234375 -25.65625 C 12.472656 -25.65625 11.09375 -25.125 10.09375 -24.0625 C 9.101562 -23.007812 8.609375 -21.429688 8.609375 -19.328125 L 8.609375 -11.328125 C 8.609375 -9.222656 9.101562 -7.640625 10.09375 -6.578125 C 11.09375 -5.523438 12.472656 -5 14.234375 -5 C 15.046875 -5 15.753906 -5.125 16.359375 -5.375 C 16.960938 -5.625 17.46875 -5.960938 17.875 -6.390625 C 18.28125 -6.816406 18.613281 -7.3125 18.875 -7.875 C 19.144531 -8.445312 19.382812 -9.070312 19.59375 -9.75 L 24.765625 -6.765625 C 24.242188 -5.617188 23.660156 -4.59375 23.015625 -3.6875 C 22.367188 -2.78125 21.628906 -2.007812 20.796875 -1.375 C 19.960938 -0.75 19.003906 -0.273438 17.921875 0.046875 C 16.835938 0.367188 15.609375 0.53125 14.234375 0.53125 Z M 14.234375 0.53125 "/></g></g></g><g fill="#000000" fill-opacity="1"><g transform="translate(225.540431, 373.741774)"><g/></g></g><g fill="#000000" fill-opacity="1"><g transform="translate(234.850337, 373.741774)"><g><path d="M 2.984375 -30.65625 L 13.75 -30.65625 C 15.625 -30.65625 17.300781 -30.367188 18.78125 -29.796875 C 20.257812 -29.222656 21.507812 -28.320312 22.53125 -27.09375 C 23.550781 -25.863281 24.335938 -24.28125 24.890625 -22.34375 C 25.453125 -20.414062 25.734375 -18.078125 25.734375 -15.328125 C 25.734375 -12.578125 25.453125 -10.234375 24.890625 -8.296875 C 24.335938 -6.367188 23.550781 -4.789062 22.53125 -3.5625 C 21.507812 -2.332031 20.257812 -1.429688 18.78125 -0.859375 C 17.300781 -0.285156 15.625 0 13.75 0 L 2.984375 0 Z M 13.75 -5.484375 C 17.289062 -5.484375 19.0625 -7.535156 19.0625 -11.640625 L 19.0625 -19.015625 C 19.0625 -23.117188 17.289062 -25.171875 13.75 -25.171875 L 9.265625 -25.171875 L 9.265625 -5.484375 Z M 13.75 -5.484375 "/></g></g></g><g fill="#000000" fill-opacity="1"><g transform="translate(262.516545, 373.741774)"><g><path d="M 2.984375 0 L 2.984375 -30.65625 L 21.96875 -30.65625 L 21.96875 -25.171875 L 9.265625 -25.171875 L 9.265625 -18.234375 L 20.03125 -18.234375 L 20.03125 -12.78125 L 9.265625 -12.78125 L 9.265625 -5.484375 L 21.96875 -5.484375 L 21.96875 0 Z M 2.984375 0 "/></g></g></g><g fill="#000000" fill-opacity="1"><g transform="translate(286.625666, 373.741774)"><g><path d="M 11.15625 -16.421875 L 9.21875 -21.296875 L 8.515625 -21.296875 L 8.875 -16.15625 L 8.875 0 L 2.984375 0 L 2.984375 -30.65625 L 9.84375 -30.65625 L 17.5625 -14.234375 L 19.5 -9.359375 L 20.203125 -9.359375 L 19.859375 -14.5 L 19.859375 -30.65625 L 25.734375 -30.65625 L 25.734375 0 L 18.890625 0 Z M 11.15625 -16.421875 "/></g></g></g><g fill="#000000" fill-opacity="1"><g transform="translate(315.345826, 373.741774)"><g><path d="M 14.71875 -25.171875 L 14.71875 0 L 8.4375 0 L 8.4375 -25.171875 L 1.09375 -25.171875 L 1.09375 -30.65625 L 22.046875 -30.65625 L 22.046875 -25.171875 Z M 14.71875 -25.171875 "/></g></g></g><g fill="#000000" fill-opacity="1"><g transform="translate(338.488837, 373.741774)"><g><path d="M 20.078125 0 L 18.1875 -7.515625 L 8.78125 -7.515625 L 6.890625 0 L 0.875 0 L 9.578125 -30.65625 L 17.5625 -30.65625 L 26.265625 0 Z M 14.75 -19.640625 L 13.796875 -24.953125 L 13.09375 -24.953125 L 12.125 -19.640625 L 10.328125 -12.5625 L 16.640625 -12.5625 Z M 14.75 -19.640625 "/></g></g></g><g fill="#000000" fill-opacity="1"><g transform="translate(365.628068, 373.741774)"><g><path d="M 2.984375 0 L 2.984375 -30.65625 L 9.265625 -30.65625 L 9.265625 -5.484375 L 19.671875 -5.484375 L 19.671875 0 Z M 2.984375 0 "/></g></g></g><g fill="#000000" fill-opacity="1"><g transform="translate(144.869273, 398.693228)"><g><path d="M 6.078125 0.1875 C 4.984375 0.1875 4.039062 -0.0507812 3.25 -0.53125 C 2.457031 -1.019531 1.84375 -1.695312 1.40625 -2.5625 C 0.96875 -3.425781 0.75 -4.4375 0.75 -5.59375 C 0.75 -6.726562 0.96875 -7.726562 1.40625 -8.59375 C 1.84375 -9.46875 2.457031 -10.148438 3.25 -10.640625 C 4.039062 -11.128906 4.984375 -11.375 6.078125 -11.375 C 7.359375 -11.375 8.398438 -11.066406 9.203125 -10.453125 C 10.003906 -9.835938 10.519531 -8.984375 10.75 -7.890625 L 9.265625 -7.890625 C 9.085938 -8.578125 8.734375 -9.128906 8.203125 -9.546875 C 7.679688 -9.972656 6.972656 -10.1875 6.078125 -10.1875 C 5.285156 -10.1875 4.585938 -10.003906 3.984375 -9.640625 C 3.390625 -9.273438 2.929688 -8.75 2.609375 -8.0625 C 2.285156 -7.375 2.125 -6.550781 2.125 -5.59375 C 2.125 -4.632812 2.285156 -3.8125 2.609375 -3.125 C 2.929688 -2.4375 3.390625 -1.90625 3.984375 -1.53125 C 4.585938 -1.164062 5.285156 -0.984375 6.078125 -0.984375 C 6.972656 -0.984375 7.679688 -1.1875 8.203125 -1.59375 C 8.734375 -2.007812 9.085938 -2.554688 9.265625 -3.234375 L 10.75 -3.234375 C 10.519531 -2.160156 10.003906 -1.320312 9.203125 -0.71875 C 8.398438 -0.113281 7.359375 0.1875 6.078125 0.1875 Z M 6.078125 0.1875 "/></g></g></g><g fill="#000000" fill-opacity="1"><g transform="translate(156.366962, 398.693228)"><g><path d="M 3.734375 0.1875 C 3.078125 0.1875 2.53125 0.078125 2.09375 -0.140625 C 1.65625 -0.367188 1.328125 -0.664062 1.109375 -1.03125 C 0.898438 -1.40625 0.796875 -1.8125 0.796875 -2.25 C 0.796875 -3.0625 1.101562 -3.6875 1.71875 -4.125 C 2.34375 -4.5625 3.1875 -4.78125 4.25 -4.78125 L 6.390625 -4.78125 L 6.390625 -4.875 C 6.390625 -5.5625 6.207031 -6.082031 5.84375 -6.4375 C 5.476562 -6.800781 4.992188 -6.984375 4.390625 -6.984375 C 3.867188 -6.984375 3.414062 -6.851562 3.03125 -6.59375 C 2.65625 -6.332031 2.421875 -5.953125 2.328125 -5.453125 L 0.953125 -5.453125 C 1.003906 -6.023438 1.195312 -6.503906 1.53125 -6.890625 C 1.875 -7.285156 2.296875 -7.585938 2.796875 -7.796875 C 3.296875 -8.003906 3.828125 -8.109375 4.390625 -8.109375 C 5.492188 -8.109375 6.328125 -7.8125 6.890625 -7.21875 C 7.453125 -6.632812 7.734375 -5.851562 7.734375 -4.875 L 7.734375 0 L 6.53125 0 L 6.453125 -1.421875 C 6.222656 -0.972656 5.894531 -0.59375 5.46875 -0.28125 C 5.039062 0.03125 4.460938 0.1875 3.734375 0.1875 Z M 3.9375 -0.9375 C 4.445312 -0.9375 4.882812 -1.066406 5.25 -1.328125 C 5.625 -1.597656 5.90625 -1.945312 6.09375 -2.375 C 6.289062 -2.800781 6.390625 -3.25 6.390625 -3.71875 L 6.390625 -3.734375 L 4.359375 -3.734375 C 3.566406 -3.734375 3.007812 -3.597656 2.6875 -3.328125 C 2.363281 -3.054688 2.203125 -2.71875 2.203125 -2.3125 C 2.203125 -1.894531 2.351562 -1.5625 2.65625 -1.3125 C 2.957031 -1.0625 3.382812 -0.9375 3.9375 -0.9375 Z M 3.9375 -0.9375 "/></g></g></g><g fill="#000000" fill-opacity="1"><g transform="translate(165.006205, 398.693228)"><g><path d="M 1.109375 0 L 1.109375 -7.921875 L 2.3125 -7.921875 L 2.421875 -6.40625 C 2.671875 -6.925781 3.046875 -7.335938 3.546875 -7.640625 C 4.046875 -7.953125 4.660156 -8.109375 5.390625 -8.109375 L 5.390625 -6.703125 L 5.03125 -6.703125 C 4.5625 -6.703125 4.128906 -6.617188 3.734375 -6.453125 C 3.335938 -6.296875 3.019531 -6.019531 2.78125 -5.625 C 2.550781 -5.226562 2.4375 -4.6875 2.4375 -4 L 2.4375 0 Z M 1.109375 0 "/></g></g></g><g fill="#000000" fill-opacity="1"><g transform="translate(170.80296, 398.693228)"><g><path d="M 4.65625 0.1875 C 3.90625 0.1875 3.234375 0.015625 2.640625 -0.328125 C 2.054688 -0.671875 1.597656 -1.148438 1.265625 -1.765625 C 0.929688 -2.390625 0.765625 -3.117188 0.765625 -3.953125 C 0.765625 -4.785156 0.925781 -5.515625 1.25 -6.140625 C 1.582031 -6.765625 2.046875 -7.25 2.640625 -7.59375 C 3.234375 -7.9375 3.914062 -8.109375 4.6875 -8.109375 C 5.457031 -8.109375 6.117188 -7.9375 6.671875 -7.59375 C 7.234375 -7.25 7.664062 -6.789062 7.96875 -6.21875 C 8.269531 -5.65625 8.421875 -5.050781 8.421875 -4.40625 C 8.421875 -4.289062 8.414062 -4.171875 8.40625 -4.046875 C 8.40625 -3.929688 8.40625 -3.800781 8.40625 -3.65625 L 2.09375 -3.65625 C 2.125 -3.050781 2.265625 -2.546875 2.515625 -2.140625 C 2.765625 -1.742188 3.078125 -1.441406 3.453125 -1.234375 C 3.835938 -1.035156 4.238281 -0.9375 4.65625 -0.9375 C 5.21875 -0.9375 5.679688 -1.0625 6.046875 -1.3125 C 6.421875 -1.570312 6.691406 -1.921875 6.859375 -2.359375 L 8.1875 -2.359375 C 7.976562 -1.628906 7.570312 -1.019531 6.96875 -0.53125 C 6.363281 -0.0507812 5.59375 0.1875 4.65625 0.1875 Z M 4.65625 -6.984375 C 4.019531 -6.984375 3.453125 -6.785156 2.953125 -6.390625 C 2.460938 -6.003906 2.179688 -5.4375 2.109375 -4.6875 L 7.09375 -4.6875 C 7.0625 -5.40625 6.816406 -5.96875 6.359375 -6.375 C 5.898438 -6.78125 5.332031 -6.984375 4.65625 -6.984375 Z M 4.65625 -6.984375 "/></g></g></g><g fill="#000000" fill-opacity="1"><g transform="translate(179.889332, 398.693228)"><g/></g></g><g fill="#000000" fill-opacity="1"><g transform="translate(184.121119, 398.693228)"><g><path d="M 4.75 0.1875 C 3.925781 0.1875 3.207031 0.0390625 2.59375 -0.25 C 1.988281 -0.550781 1.519531 -0.96875 1.1875 -1.5 C 0.863281 -2.03125 0.703125 -2.648438 0.703125 -3.359375 L 2.109375 -3.359375 C 2.109375 -2.921875 2.207031 -2.515625 2.40625 -2.140625 C 2.613281 -1.773438 2.910156 -1.484375 3.296875 -1.265625 C 3.679688 -1.046875 4.164062 -0.9375 4.75 -0.9375 C 5.5 -0.9375 6.082031 -1.117188 6.5 -1.484375 C 6.914062 -1.847656 7.125 -2.300781 7.125 -2.84375 C 7.125 -3.289062 7.023438 -3.648438 6.828125 -3.921875 C 6.640625 -4.191406 6.382812 -4.410156 6.0625 -4.578125 C 5.738281 -4.753906 5.363281 -4.90625 4.9375 -5.03125 C 4.519531 -5.15625 4.082031 -5.300781 3.625 -5.46875 C 2.757812 -5.757812 2.117188 -6.125 1.703125 -6.5625 C 1.285156 -7.007812 1.078125 -7.585938 1.078125 -8.296875 C 1.066406 -8.898438 1.207031 -9.429688 1.5 -9.890625 C 1.789062 -10.359375 2.195312 -10.722656 2.71875 -10.984375 C 3.25 -11.242188 3.875 -11.375 4.59375 -11.375 C 5.3125 -11.375 5.929688 -11.238281 6.453125 -10.96875 C 6.984375 -10.707031 7.394531 -10.34375 7.6875 -9.875 C 7.976562 -9.40625 8.128906 -8.867188 8.140625 -8.265625 L 6.734375 -8.265625 C 6.734375 -8.578125 6.65625 -8.882812 6.5 -9.1875 C 6.34375 -9.488281 6.097656 -9.734375 5.765625 -9.921875 C 5.441406 -10.117188 5.035156 -10.21875 4.546875 -10.21875 C 3.941406 -10.226562 3.441406 -10.070312 3.046875 -9.75 C 2.660156 -9.4375 2.46875 -9 2.46875 -8.4375 C 2.46875 -7.957031 2.601562 -7.585938 2.875 -7.328125 C 3.15625 -7.078125 3.539062 -6.867188 4.03125 -6.703125 C 4.519531 -6.535156 5.082031 -6.34375 5.71875 -6.125 C 6.25 -5.9375 6.726562 -5.710938 7.15625 -5.453125 C 7.582031 -5.203125 7.914062 -4.875 8.15625 -4.46875 C 8.394531 -4.0625 8.515625 -3.546875 8.515625 -2.921875 C 8.515625 -2.390625 8.375 -1.882812 8.09375 -1.40625 C 7.820312 -0.9375 7.40625 -0.550781 6.84375 -0.25 C 6.28125 0.0390625 5.582031 0.1875 4.75 0.1875 Z M 4.75 0.1875 "/></g></g></g><g fill="#000000" fill-opacity="1"><g transform="translate(193.351209, 398.693228)"><g><path d="M 4.703125 0.1875 C 3.960938 0.1875 3.289062 0.0195312 2.6875 -0.3125 C 2.09375 -0.65625 1.625 -1.140625 1.28125 -1.765625 C 0.9375 -2.390625 0.765625 -3.117188 0.765625 -3.953125 C 0.765625 -4.796875 0.941406 -5.53125 1.296875 -6.15625 C 1.648438 -6.78125 2.125 -7.257812 2.71875 -7.59375 C 3.320312 -7.9375 4 -8.109375 4.75 -8.109375 C 5.488281 -8.109375 6.15625 -7.9375 6.75 -7.59375 C 7.351562 -7.257812 7.828125 -6.78125 8.171875 -6.15625 C 8.515625 -5.53125 8.6875 -4.796875 8.6875 -3.953125 C 8.6875 -3.117188 8.507812 -2.390625 8.15625 -1.765625 C 7.8125 -1.140625 7.335938 -0.65625 6.734375 -0.3125 C 6.128906 0.0195312 5.453125 0.1875 4.703125 0.1875 Z M 4.703125 -0.953125 C 5.160156 -0.953125 5.585938 -1.0625 5.984375 -1.28125 C 6.378906 -1.507812 6.695312 -1.847656 6.9375 -2.296875 C 7.1875 -2.742188 7.3125 -3.296875 7.3125 -3.953125 C 7.3125 -4.617188 7.191406 -5.175781 6.953125 -5.625 C 6.710938 -6.070312 6.394531 -6.40625 6 -6.625 C 5.601562 -6.851562 5.1875 -6.96875 4.75 -6.96875 C 4.289062 -6.96875 3.863281 -6.851562 3.46875 -6.625 C 3.070312 -6.40625 2.75 -6.070312 2.5 -5.625 C 2.257812 -5.175781 2.140625 -4.617188 2.140625 -3.953125 C 2.140625 -3.296875 2.257812 -2.742188 2.5 -2.296875 C 2.75 -1.847656 3.066406 -1.507812 3.453125 -1.28125 C 3.847656 -1.0625 4.265625 -0.953125 4.703125 -0.953125 Z M 4.703125 -0.953125 "/></g></g></g><g fill="#000000" fill-opacity="1"><g transform="translate(202.804863, 398.693228)"><g><path d="M 1.109375 0 L 1.109375 -11.5 L 2.4375 -11.5 L 2.4375 0 Z M 1.109375 0 "/></g></g></g><g fill="#000000" fill-opacity="1"><g transform="translate(206.34998, 398.693228)"><g><path d="M 4 0.1875 C 3.0625 0.1875 2.3125 -0.09375 1.75 -0.65625 C 1.195312 -1.226562 0.921875 -2.109375 0.921875 -3.296875 L 0.921875 -7.921875 L 2.265625 -7.921875 L 2.265625 -3.4375 C 2.265625 -1.78125 2.941406 -0.953125 4.296875 -0.953125 C 4.984375 -0.953125 5.550781 -1.195312 6 -1.6875 C 6.457031 -2.1875 6.6875 -2.894531 6.6875 -3.8125 L 6.6875 -7.921875 L 8.03125 -7.921875 L 8.03125 0 L 6.8125 0 L 6.71875 -1.421875 C 6.476562 -0.921875 6.113281 -0.523438 5.625 -0.234375 C 5.144531 0.046875 4.601562 0.1875 4 0.1875 Z M 4 0.1875 "/></g></g></g><g fill="#000000" fill-opacity="1"><g transform="translate(215.484263, 398.693228)"><g><path d="M 4.234375 0 C 3.503906 0 2.929688 -0.171875 2.515625 -0.515625 C 2.109375 -0.867188 1.90625 -1.503906 1.90625 -2.421875 L 1.90625 -6.78125 L 0.53125 -6.78125 L 0.53125 -7.921875 L 1.90625 -7.921875 L 2.078125 -9.828125 L 3.234375 -9.828125 L 3.234375 -7.921875 L 5.578125 -7.921875 L 5.578125 -6.78125 L 3.234375 -6.78125 L 3.234375 -2.421875 C 3.234375 -1.921875 3.332031 -1.582031 3.53125 -1.40625 C 3.738281 -1.238281 4.097656 -1.15625 4.609375 -1.15625 L 5.453125 -1.15625 L 5.453125 0 Z M 4.234375 0 "/></g></g></g><g fill="#000000" fill-opacity="1"><g transform="translate(221.664277, 398.693228)"><g><path d="M 1.921875 -9.671875 C 1.648438 -9.671875 1.425781 -9.757812 1.25 -9.9375 C 1.070312 -10.113281 0.984375 -10.335938 0.984375 -10.609375 C 0.984375 -10.859375 1.070312 -11.066406 1.25 -11.234375 C 1.425781 -11.410156 1.648438 -11.5 1.921875 -11.5 C 2.171875 -11.5 2.382812 -11.410156 2.5625 -11.234375 C 2.75 -11.066406 2.84375 -10.859375 2.84375 -10.609375 C 2.84375 -10.335938 2.75 -10.113281 2.5625 -9.9375 C 2.382812 -9.757812 2.171875 -9.671875 1.921875 -9.671875 Z M 1.25 0 L 1.25 -7.921875 L 2.59375 -7.921875 L 2.59375 0 Z M 1.25 0 "/></g></g></g><g fill="#000000" fill-opacity="1"><g transform="translate(225.48087, 398.693228)"><g><path d="M 4.703125 0.1875 C 3.960938 0.1875 3.289062 0.0195312 2.6875 -0.3125 C 2.09375 -0.65625 1.625 -1.140625 1.28125 -1.765625 C 0.9375 -2.390625 0.765625 -3.117188 0.765625 -3.953125 C 0.765625 -4.796875 0.941406 -5.53125 1.296875 -6.15625 C 1.648438 -6.78125 2.125 -7.257812 2.71875 -7.59375 C 3.320312 -7.9375 4 -8.109375 4.75 -8.109375 C 5.488281 -8.109375 6.15625 -7.9375 6.75 -7.59375 C 7.351562 -7.257812 7.828125 -6.78125 8.171875 -6.15625 C 8.515625 -5.53125 8.6875 -4.796875 8.6875 -3.953125 C 8.6875 -3.117188 8.507812 -2.390625 8.15625 -1.765625 C 7.8125 -1.140625 7.335938 -0.65625 6.734375 -0.3125 C 6.128906 0.0195312 5.453125 0.1875 4.703125 0.1875 Z M 4.703125 -0.953125 C 5.160156 -0.953125 5.585938 -1.0625 5.984375 -1.28125 C 6.378906 -1.507812 6.695312 -1.847656 6.9375 -2.296875 C 7.1875 -2.742188 7.3125 -3.296875 7.3125 -3.953125 C 7.3125 -4.617188 7.191406 -5.175781 6.953125 -5.625 C 6.710938 -6.070312 6.394531 -6.40625 6 -6.625 C 5.601562 -6.851562 5.1875 -6.96875 4.75 -6.96875 C 4.289062 -6.96875 3.863281 -6.851562 3.46875 -6.625 C 3.070312 -6.40625 2.75 -6.070312 2.5 -5.625 C 2.257812 -5.175781 2.140625 -4.617188 2.140625 -3.953125 C 2.140625 -3.296875 2.257812 -2.742188 2.5 -2.296875 C 2.75 -1.847656 3.066406 -1.507812 3.453125 -1.28125 C 3.847656 -1.0625 4.265625 -0.953125 4.703125 -0.953125 Z M 4.703125 -0.953125 "/></g></g></g><g fill="#000000" fill-opacity="1"><g transform="translate(234.934525, 398.693228)"><g><path d="M 1.109375 0 L 1.109375 -7.921875 L 2.3125 -7.921875 L 2.390625 -6.5 C 2.648438 -7 3.019531 -7.390625 3.5 -7.671875 C 3.976562 -7.960938 4.519531 -8.109375 5.125 -8.109375 C 6.0625 -8.109375 6.804688 -7.820312 7.359375 -7.25 C 7.921875 -6.6875 8.203125 -5.8125 8.203125 -4.625 L 8.203125 0 L 6.859375 0 L 6.859375 -4.484375 C 6.859375 -6.140625 6.179688 -6.96875 4.828125 -6.96875 C 4.140625 -6.96875 3.566406 -6.71875 3.109375 -6.21875 C 2.660156 -5.726562 2.4375 -5.023438 2.4375 -4.109375 L 2.4375 0 Z M 1.109375 0 "/></g></g></g><g fill="#000000" fill-opacity="1"><g transform="translate(244.068808, 398.693228)"><g><path d="M 4.140625 0.1875 C 3.191406 0.1875 2.398438 -0.0507812 1.765625 -0.53125 C 1.140625 -1.007812 0.773438 -1.65625 0.671875 -2.46875 L 2.046875 -2.46875 C 2.128906 -2.0625 2.347656 -1.703125 2.703125 -1.390625 C 3.054688 -1.085938 3.539062 -0.9375 4.15625 -0.9375 C 4.71875 -0.9375 5.128906 -1.054688 5.390625 -1.296875 C 5.660156 -1.535156 5.796875 -1.820312 5.796875 -2.15625 C 5.796875 -2.632812 5.625 -2.953125 5.28125 -3.109375 C 4.9375 -3.273438 4.445312 -3.421875 3.8125 -3.546875 C 3.382812 -3.628906 2.957031 -3.75 2.53125 -3.90625 C 2.113281 -4.070312 1.757812 -4.300781 1.46875 -4.59375 C 1.175781 -4.882812 1.03125 -5.269531 1.03125 -5.75 C 1.03125 -6.4375 1.289062 -7 1.8125 -7.4375 C 2.332031 -7.882812 3.03125 -8.109375 3.90625 -8.109375 C 4.75 -8.109375 5.4375 -7.894531 5.96875 -7.46875 C 6.507812 -7.050781 6.828125 -6.457031 6.921875 -5.6875 L 5.59375 -5.6875 C 5.539062 -6.09375 5.363281 -6.410156 5.0625 -6.640625 C 4.769531 -6.867188 4.378906 -6.984375 3.890625 -6.984375 C 3.410156 -6.984375 3.039062 -6.878906 2.78125 -6.671875 C 2.519531 -6.472656 2.390625 -6.207031 2.390625 -5.875 C 2.390625 -5.550781 2.554688 -5.300781 2.890625 -5.125 C 3.234375 -4.945312 3.691406 -4.789062 4.265625 -4.65625 C 4.753906 -4.550781 5.21875 -4.421875 5.65625 -4.265625 C 6.101562 -4.117188 6.46875 -3.890625 6.75 -3.578125 C 7.03125 -3.273438 7.171875 -2.835938 7.171875 -2.265625 C 7.179688 -1.554688 6.910156 -0.96875 6.359375 -0.5 C 5.816406 -0.0390625 5.078125 0.1875 4.140625 0.1875 Z M 4.140625 0.1875 "/></g></g></g><g fill="#000000" fill-opacity="1"><g transform="translate(252.053316, 398.693228)"><g/></g></g><g fill="#000000" fill-opacity="1"><g transform="translate(256.285102, 398.693228)"><g><path d="M 1.1875 0 L 1.1875 -11.171875 L 4.859375 -11.171875 C 5.722656 -11.171875 6.4375 -11.023438 7 -10.734375 C 7.570312 -10.453125 7.992188 -10.066406 8.265625 -9.578125 C 8.535156 -9.085938 8.671875 -8.535156 8.671875 -7.921875 C 8.671875 -7.316406 8.535156 -6.769531 8.265625 -6.28125 C 8.003906 -5.789062 7.59375 -5.394531 7.03125 -5.09375 C 6.46875 -4.800781 5.742188 -4.65625 4.859375 -4.65625 L 2.515625 -4.65625 L 2.515625 0 Z M 2.515625 -5.796875 L 4.828125 -5.796875 C 5.710938 -5.796875 6.34375 -5.984375 6.71875 -6.359375 C 7.101562 -6.742188 7.296875 -7.265625 7.296875 -7.921875 C 7.296875 -8.585938 7.101562 -9.109375 6.71875 -9.484375 C 6.34375 -9.867188 5.710938 -10.0625 4.828125 -10.0625 L 2.515625 -10.0625 Z M 2.515625 -5.796875 "/></g></g></g><g fill="#000000" fill-opacity="1"><g transform="translate(265.531168, 398.693228)"><g><path d="M 1.109375 0 L 1.109375 -7.921875 L 2.3125 -7.921875 L 2.421875 -6.40625 C 2.671875 -6.925781 3.046875 -7.335938 3.546875 -7.640625 C 4.046875 -7.953125 4.660156 -8.109375 5.390625 -8.109375 L 5.390625 -6.703125 L 5.03125 -6.703125 C 4.5625 -6.703125 4.128906 -6.617188 3.734375 -6.453125 C 3.335938 -6.296875 3.019531 -6.019531 2.78125 -5.625 C 2.550781 -5.226562 2.4375 -4.6875 2.4375 -4 L 2.4375 0 Z M 1.109375 0 "/></g></g></g><g fill="#000000" fill-opacity="1"><g transform="translate(271.327923, 398.693228)"><g><path d="M 1.921875 -9.671875 C 1.648438 -9.671875 1.425781 -9.757812 1.25 -9.9375 C 1.070312 -10.113281 0.984375 -10.335938 0.984375 -10.609375 C 0.984375 -10.859375 1.070312 -11.066406 1.25 -11.234375 C 1.425781 -11.410156 1.648438 -11.5 1.921875 -11.5 C 2.171875 -11.5 2.382812 -11.410156 2.5625 -11.234375 C 2.75 -11.066406 2.84375 -10.859375 2.84375 -10.609375 C 2.84375 -10.335938 2.75 -10.113281 2.5625 -9.9375 C 2.382812 -9.757812 2.171875 -9.671875 1.921875 -9.671875 Z M 1.25 0 L 1.25 -7.921875 L 2.59375 -7.921875 L 2.59375 0 Z M 1.25 0 "/></g></g></g><g fill="#000000" fill-opacity="1"><g transform="translate(275.144516, 398.693228)"><g><path d="M 3.390625 0 L 0.390625 -7.921875 L 1.78125 -7.921875 L 4.171875 -1.296875 L 6.5625 -7.921875 L 7.9375 -7.921875 L 4.9375 0 Z M 3.390625 0 "/></g></g></g><g fill="#000000" fill-opacity="1"><g transform="translate(283.464371, 398.693228)"><g><path d="M 3.734375 0.1875 C 3.078125 0.1875 2.53125 0.078125 2.09375 -0.140625 C 1.65625 -0.367188 1.328125 -0.664062 1.109375 -1.03125 C 0.898438 -1.40625 0.796875 -1.8125 0.796875 -2.25 C 0.796875 -3.0625 1.101562 -3.6875 1.71875 -4.125 C 2.34375 -4.5625 3.1875 -4.78125 4.25 -4.78125 L 6.390625 -4.78125 L 6.390625 -4.875 C 6.390625 -5.5625 6.207031 -6.082031 5.84375 -6.4375 C 5.476562 -6.800781 4.992188 -6.984375 4.390625 -6.984375 C 3.867188 -6.984375 3.414062 -6.851562 3.03125 -6.59375 C 2.65625 -6.332031 2.421875 -5.953125 2.328125 -5.453125 L 0.953125 -5.453125 C 1.003906 -6.023438 1.195312 -6.503906 1.53125 -6.890625 C 1.875 -7.285156 2.296875 -7.585938 2.796875 -7.796875 C 3.296875 -8.003906 3.828125 -8.109375 4.390625 -8.109375 C 5.492188 -8.109375 6.328125 -7.8125 6.890625 -7.21875 C 7.453125 -6.632812 7.734375 -5.851562 7.734375 -4.875 L 7.734375 0 L 6.53125 0 L 6.453125 -1.421875 C 6.222656 -0.972656 5.894531 -0.59375 5.46875 -0.28125 C 5.039062 0.03125 4.460938 0.1875 3.734375 0.1875 Z M 3.9375 -0.9375 C 4.445312 -0.9375 4.882812 -1.066406 5.25 -1.328125 C 5.625 -1.597656 5.90625 -1.945312 6.09375 -2.375 C 6.289062 -2.800781 6.390625 -3.25 6.390625 -3.71875 L 6.390625 -3.734375 L 4.359375 -3.734375 C 3.566406 -3.734375 3.007812 -3.597656 2.6875 -3.328125 C 2.363281 -3.054688 2.203125 -2.71875 2.203125 -2.3125 C 2.203125 -1.894531 2.351562 -1.5625 2.65625 -1.3125 C 2.957031 -1.0625 3.382812 -0.9375 3.9375 -0.9375 Z M 3.9375 -0.9375 "/></g></g></g><g fill="#000000" fill-opacity="1"><g transform="translate(292.103613, 398.693228)"><g><path d="M 4.234375 0 C 3.503906 0 2.929688 -0.171875 2.515625 -0.515625 C 2.109375 -0.867188 1.90625 -1.503906 1.90625 -2.421875 L 1.90625 -6.78125 L 0.53125 -6.78125 L 0.53125 -7.921875 L 1.90625 -7.921875 L 2.078125 -9.828125 L 3.234375 -9.828125 L 3.234375 -7.921875 L 5.578125 -7.921875 L 5.578125 -6.78125 L 3.234375 -6.78125 L 3.234375 -2.421875 C 3.234375 -1.921875 3.332031 -1.582031 3.53125 -1.40625 C 3.738281 -1.238281 4.097656 -1.15625 4.609375 -1.15625 L 5.453125 -1.15625 L 5.453125 0 Z M 4.234375 0 "/></g></g></g><g fill="#000000" fill-opacity="1"><g transform="translate(298.283627, 398.693228)"><g><path d="M 4.65625 0.1875 C 3.90625 0.1875 3.234375 0.015625 2.640625 -0.328125 C 2.054688 -0.671875 1.597656 -1.148438 1.265625 -1.765625 C 0.929688 -2.390625 0.765625 -3.117188 0.765625 -3.953125 C 0.765625 -4.785156 0.925781 -5.515625 1.25 -6.140625 C 1.582031 -6.765625 2.046875 -7.25 2.640625 -7.59375 C 3.234375 -7.9375 3.914062 -8.109375 4.6875 -8.109375 C 5.457031 -8.109375 6.117188 -7.9375 6.671875 -7.59375 C 7.234375 -7.25 7.664062 -6.789062 7.96875 -6.21875 C 8.269531 -5.65625 8.421875 -5.050781 8.421875 -4.40625 C 8.421875 -4.289062 8.414062 -4.171875 8.40625 -4.046875 C 8.40625 -3.929688 8.40625 -3.800781 8.40625 -3.65625 L 2.09375 -3.65625 C 2.125 -3.050781 2.265625 -2.546875 2.515625 -2.140625 C 2.765625 -1.742188 3.078125 -1.441406 3.453125 -1.234375 C 3.835938 -1.035156 4.238281 -0.9375 4.65625 -0.9375 C 5.21875 -0.9375 5.679688 -1.0625 6.046875 -1.3125 C 6.421875 -1.570312 6.691406 -1.921875 6.859375 -2.359375 L 8.1875 -2.359375 C 7.976562 -1.628906 7.570312 -1.019531 6.96875 -0.53125 C 6.363281 -0.0507812 5.59375 0.1875 4.65625 0.1875 Z M 4.65625 -6.984375 C 4.019531 -6.984375 3.453125 -6.785156 2.953125 -6.390625 C 2.460938 -6.003906 2.179688 -5.4375 2.109375 -4.6875 L 7.09375 -4.6875 C 7.0625 -5.40625 6.816406 -5.96875 6.359375 -6.375 C 5.898438 -6.78125 5.332031 -6.984375 4.65625 -6.984375 Z M 4.65625 -6.984375 "/></g></g></g><g fill="#000000" fill-opacity="1"><g transform="translate(307.369999, 398.693228)"><g/></g></g><g fill="#000000" fill-opacity="1"><g transform="translate(311.601786, 398.693228)"><g><path d="M 1.1875 0 L 1.1875 -11.171875 L 2.515625 -11.171875 L 2.515625 -1.0625 L 7.734375 -1.0625 L 7.734375 0 Z M 1.1875 0 "/></g></g></g><g fill="#000000" fill-opacity="1"><g transform="translate(319.985527, 398.693228)"><g><path d="M 1.921875 -9.671875 C 1.648438 -9.671875 1.425781 -9.757812 1.25 -9.9375 C 1.070312 -10.113281 0.984375 -10.335938 0.984375 -10.609375 C 0.984375 -10.859375 1.070312 -11.066406 1.25 -11.234375 C 1.425781 -11.410156 1.648438 -11.5 1.921875 -11.5 C 2.171875 -11.5 2.382812 -11.410156 2.5625 -11.234375 C 2.75 -11.066406 2.84375 -10.859375 2.84375 -10.609375 C 2.84375 -10.335938 2.75 -10.113281 2.5625 -9.9375 C 2.382812 -9.757812 2.171875 -9.671875 1.921875 -9.671875 Z M 1.25 0 L 1.25 -7.921875 L 2.59375 -7.921875 L 2.59375 0 Z M 1.25 0 "/></g></g></g><g fill="#000000" fill-opacity="1"><g transform="translate(323.80212, 398.693228)"><g><path d="M 1.109375 0 L 1.109375 -7.921875 L 2.3125 -7.921875 L 2.40625 -6.765625 C 2.664062 -7.191406 3.007812 -7.519531 3.4375 -7.75 C 3.863281 -7.988281 4.34375 -8.109375 4.875 -8.109375 C 5.5 -8.109375 6.035156 -7.976562 6.484375 -7.71875 C 6.941406 -7.46875 7.289062 -7.082031 7.53125 -6.5625 C 7.8125 -7.039062 8.191406 -7.414062 8.671875 -7.6875 C 9.160156 -7.96875 9.6875 -8.109375 10.25 -8.109375 C 11.195312 -8.109375 11.953125 -7.820312 12.515625 -7.25 C 13.078125 -6.6875 13.359375 -5.8125 13.359375 -4.625 L 13.359375 0 L 12.046875 0 L 12.046875 -4.484375 C 12.046875 -5.304688 11.878906 -5.925781 11.546875 -6.34375 C 11.210938 -6.757812 10.738281 -6.96875 10.125 -6.96875 C 9.488281 -6.96875 8.957031 -6.71875 8.53125 -6.21875 C 8.113281 -5.726562 7.90625 -5.023438 7.90625 -4.109375 L 7.90625 0 L 6.5625 0 L 6.5625 -4.484375 C 6.5625 -5.304688 6.394531 -5.925781 6.0625 -6.34375 C 5.738281 -6.757812 5.265625 -6.96875 4.640625 -6.96875 C 4.015625 -6.96875 3.488281 -6.71875 3.0625 -6.21875 C 2.644531 -5.726562 2.4375 -5.023438 2.4375 -4.109375 L 2.4375 0 Z M 1.109375 0 "/></g></g></g><g fill="#000000" fill-opacity="1"><g transform="translate(338.094385, 398.693228)"><g><path d="M 1.921875 -9.671875 C 1.648438 -9.671875 1.425781 -9.757812 1.25 -9.9375 C 1.070312 -10.113281 0.984375 -10.335938 0.984375 -10.609375 C 0.984375 -10.859375 1.070312 -11.066406 1.25 -11.234375 C 1.425781 -11.410156 1.648438 -11.5 1.921875 -11.5 C 2.171875 -11.5 2.382812 -11.410156 2.5625 -11.234375 C 2.75 -11.066406 2.84375 -10.859375 2.84375 -10.609375 C 2.84375 -10.335938 2.75 -10.113281 2.5625 -9.9375 C 2.382812 -9.757812 2.171875 -9.671875 1.921875 -9.671875 Z M 1.25 0 L 1.25 -7.921875 L 2.59375 -7.921875 L 2.59375 0 Z M 1.25 0 "/></g></g></g><g fill="#000000" fill-opacity="1"><g transform="translate(341.910977, 398.693228)"><g><path d="M 4.234375 0 C 3.503906 0 2.929688 -0.171875 2.515625 -0.515625 C 2.109375 -0.867188 1.90625 -1.503906 1.90625 -2.421875 L 1.90625 -6.78125 L 0.53125 -6.78125 L 0.53125 -7.921875 L 1.90625 -7.921875 L 2.078125 -9.828125 L 3.234375 -9.828125 L 3.234375 -7.921875 L 5.578125 -7.921875 L 5.578125 -6.78125 L 3.234375 -6.78125 L 3.234375 -2.421875 C 3.234375 -1.921875 3.332031 -1.582031 3.53125 -1.40625 C 3.738281 -1.238281 4.097656 -1.15625 4.609375 -1.15625 L 5.453125 -1.15625 L 5.453125 0 Z M 4.234375 0 "/></g></g></g><g fill="#000000" fill-opacity="1"><g transform="translate(348.090991, 398.693228)"><g><path d="M 4.65625 0.1875 C 3.90625 0.1875 3.234375 0.015625 2.640625 -0.328125 C 2.054688 -0.671875 1.597656 -1.148438 1.265625 -1.765625 C 0.929688 -2.390625 0.765625 -3.117188 0.765625 -3.953125 C 0.765625 -4.785156 0.925781 -5.515625 1.25 -6.140625 C 1.582031 -6.765625 2.046875 -7.25 2.640625 -7.59375 C 3.234375 -7.9375 3.914062 -8.109375 4.6875 -8.109375 C 5.457031 -8.109375 6.117188 -7.9375 6.671875 -7.59375 C 7.234375 -7.25 7.664062 -6.789062 7.96875 -6.21875 C 8.269531 -5.65625 8.421875 -5.050781 8.421875 -4.40625 C 8.421875 -4.289062 8.414062 -4.171875 8.40625 -4.046875 C 8.40625 -3.929688 8.40625 -3.800781 8.40625 -3.65625 L 2.09375 -3.65625 C 2.125 -3.050781 2.265625 -2.546875 2.515625 -2.140625 C 2.765625 -1.742188 3.078125 -1.441406 3.453125 -1.234375 C 3.835938 -1.035156 4.238281 -0.9375 4.65625 -0.9375 C 5.21875 -0.9375 5.679688 -1.0625 6.046875 -1.3125 C 6.421875 -1.570312 6.691406 -1.921875 6.859375 -2.359375 L 8.1875 -2.359375 C 7.976562 -1.628906 7.570312 -1.019531 6.96875 -0.53125 C 6.363281 -0.0507812 5.59375 0.1875 4.65625 0.1875 Z M 4.65625 -6.984375 C 4.019531 -6.984375 3.453125 -6.785156 2.953125 -6.390625 C 2.460938 -6.003906 2.179688 -5.4375 2.109375 -4.6875 L 7.09375 -4.6875 C 7.0625 -5.40625 6.816406 -5.96875 6.359375 -6.375 C 5.898438 -6.78125 5.332031 -6.984375 4.65625 -6.984375 Z M 4.65625 -6.984375 "/></g></g></g><g fill="#000000" fill-opacity="1"><g transform="translate(357.177363, 398.693228)"><g><path d="M 4.6875 0.1875 C 3.90625 0.1875 3.21875 0.0078125 2.625 -0.34375 C 2.03125 -0.707031 1.570312 -1.203125 1.25 -1.828125 C 0.925781 -2.460938 0.765625 -3.175781 0.765625 -3.96875 C 0.765625 -4.769531 0.925781 -5.484375 1.25 -6.109375 C 1.582031 -6.734375 2.039062 -7.222656 2.625 -7.578125 C 3.21875 -7.929688 3.910156 -8.109375 4.703125 -8.109375 C 5.359375 -8.109375 5.9375 -7.972656 6.4375 -7.703125 C 6.9375 -7.441406 7.320312 -7.070312 7.59375 -6.59375 L 7.59375 -11.5 L 8.9375 -11.5 L 8.9375 0 L 7.734375 0 L 7.59375 -1.3125 C 7.34375 -0.925781 6.976562 -0.578125 6.5 -0.265625 C 6.019531 0.0351562 5.414062 0.1875 4.6875 0.1875 Z M 4.84375 -0.96875 C 5.375 -0.96875 5.84375 -1.09375 6.25 -1.34375 C 6.65625 -1.59375 6.972656 -1.941406 7.203125 -2.390625 C 7.429688 -2.835938 7.546875 -3.359375 7.546875 -3.953125 C 7.546875 -4.554688 7.429688 -5.082031 7.203125 -5.53125 C 6.972656 -5.976562 6.65625 -6.328125 6.25 -6.578125 C 5.84375 -6.828125 5.375 -6.953125 4.84375 -6.953125 C 4.320312 -6.953125 3.851562 -6.828125 3.4375 -6.578125 C 3.03125 -6.328125 2.710938 -5.976562 2.484375 -5.53125 C 2.253906 -5.082031 2.140625 -4.554688 2.140625 -3.953125 C 2.140625 -3.359375 2.253906 -2.835938 2.484375 -2.390625 C 2.710938 -1.941406 3.03125 -1.59375 3.4375 -1.34375 C 3.851562 -1.09375 4.320312 -0.96875 4.84375 -0.96875 Z M 4.84375 -0.96875 "/></g></g></g></svg>